<?xml version="1.0" encoding="utf-8" standalone="no"?>
<!DOCTYPE svg PUBLIC "-//W3C//DTD SVG 1.1//EN"
  "http://www.w3.org/Graphics/SVG/1.1/DTD/svg11.dtd">
<!-- Created with matplotlib (https://matplotlib.org/) -->
<svg height="345.6pt" version="1.1" viewBox="0 0 460.8 345.6" width="460.8pt" xmlns="http://www.w3.org/2000/svg" xmlns:xlink="http://www.w3.org/1999/xlink">
 <defs>
  <style type="text/css">
*{stroke-linecap:butt;stroke-linejoin:round;}
  </style>
 </defs>
 <g id="figure_1">
  <g id="patch_1">
   <path d="M 0 345.6 
L 460.8 345.6 
L 460.8 0 
L 0 0 
z
" style="fill:#ffffff;"/>
  </g>
  <g id="axes_1">
   <g id="patch_2">
    <path d="M 57.6 307.584 
L 414.72 307.584 
L 414.72 41.472 
L 57.6 41.472 
z
" style="fill:#ffffff;"/>
   </g>
   <g id="matplotlib.axis_1">
    <g id="xtick_1">
     <g id="line2d_1">
      <defs>
       <path d="M 0 0 
L 0 3.5 
" id="m33090b6409" style="stroke:#000000;stroke-width:0.8;"/>
      </defs>
      <g>
       <use style="stroke:#000000;stroke-width:0.8;" x="73.832727" xlink:href="#m33090b6409" y="307.584"/>
      </g>
     </g>
     <g id="text_1">
      <!-- 0 -->
      <defs>
       <path d="M 31.78125 66.40625 
Q 24.171875 66.40625 20.328125 58.90625 
Q 16.5 51.421875 16.5 36.375 
Q 16.5 21.390625 20.328125 13.890625 
Q 24.171875 6.390625 31.78125 6.390625 
Q 39.453125 6.390625 43.28125 13.890625 
Q 47.125 21.390625 47.125 36.375 
Q 47.125 51.421875 43.28125 58.90625 
Q 39.453125 66.40625 31.78125 66.40625 
z
M 31.78125 74.21875 
Q 44.046875 74.21875 50.515625 64.515625 
Q 56.984375 54.828125 56.984375 36.375 
Q 56.984375 17.96875 50.515625 8.265625 
Q 44.046875 -1.421875 31.78125 -1.421875 
Q 19.53125 -1.421875 13.0625 8.265625 
Q 6.59375 17.96875 6.59375 36.375 
Q 6.59375 54.828125 13.0625 64.515625 
Q 19.53125 74.21875 31.78125 74.21875 
z
" id="DejaVuSans-48"/>
      </defs>
      <g transform="translate(70.651477 322.182437)scale(0.1 -0.1)">
       <use xlink:href="#DejaVuSans-48"/>
      </g>
     </g>
    </g>
    <g id="xtick_2">
     <g id="line2d_2">
      <g>
       <use style="stroke:#000000;stroke-width:0.8;" x="116.861825" xlink:href="#m33090b6409" y="307.584"/>
      </g>
     </g>
     <g id="text_2">
      <!-- 200 -->
      <defs>
       <path d="M 19.1875 8.296875 
L 53.609375 8.296875 
L 53.609375 0 
L 7.328125 0 
L 7.328125 8.296875 
Q 12.9375 14.109375 22.625 23.890625 
Q 32.328125 33.6875 34.8125 36.53125 
Q 39.546875 41.84375 41.421875 45.53125 
Q 43.3125 49.21875 43.3125 52.78125 
Q 43.3125 58.59375 39.234375 62.25 
Q 35.15625 65.921875 28.609375 65.921875 
Q 23.96875 65.921875 18.8125 64.3125 
Q 13.671875 62.703125 7.8125 59.421875 
L 7.8125 69.390625 
Q 13.765625 71.78125 18.9375 73 
Q 24.125 74.21875 28.421875 74.21875 
Q 39.75 74.21875 46.484375 68.546875 
Q 53.21875 62.890625 53.21875 53.421875 
Q 53.21875 48.921875 51.53125 44.890625 
Q 49.859375 40.875 45.40625 35.40625 
Q 44.1875 33.984375 37.640625 27.21875 
Q 31.109375 20.453125 19.1875 8.296875 
z
" id="DejaVuSans-50"/>
      </defs>
      <g transform="translate(107.318075 322.182437)scale(0.1 -0.1)">
       <use xlink:href="#DejaVuSans-50"/>
       <use x="63.623047" xlink:href="#DejaVuSans-48"/>
       <use x="127.246094" xlink:href="#DejaVuSans-48"/>
      </g>
     </g>
    </g>
    <g id="xtick_3">
     <g id="line2d_3">
      <g>
       <use style="stroke:#000000;stroke-width:0.8;" x="159.890924" xlink:href="#m33090b6409" y="307.584"/>
      </g>
     </g>
     <g id="text_3">
      <!-- 400 -->
      <defs>
       <path d="M 37.796875 64.3125 
L 12.890625 25.390625 
L 37.796875 25.390625 
z
M 35.203125 72.90625 
L 47.609375 72.90625 
L 47.609375 25.390625 
L 58.015625 25.390625 
L 58.015625 17.1875 
L 47.609375 17.1875 
L 47.609375 0 
L 37.796875 0 
L 37.796875 17.1875 
L 4.890625 17.1875 
L 4.890625 26.703125 
z
" id="DejaVuSans-52"/>
      </defs>
      <g transform="translate(150.347174 322.182437)scale(0.1 -0.1)">
       <use xlink:href="#DejaVuSans-52"/>
       <use x="63.623047" xlink:href="#DejaVuSans-48"/>
       <use x="127.246094" xlink:href="#DejaVuSans-48"/>
      </g>
     </g>
    </g>
    <g id="xtick_4">
     <g id="line2d_4">
      <g>
       <use style="stroke:#000000;stroke-width:0.8;" x="202.920022" xlink:href="#m33090b6409" y="307.584"/>
      </g>
     </g>
     <g id="text_4">
      <!-- 600 -->
      <defs>
       <path d="M 33.015625 40.375 
Q 26.375 40.375 22.484375 35.828125 
Q 18.609375 31.296875 18.609375 23.390625 
Q 18.609375 15.53125 22.484375 10.953125 
Q 26.375 6.390625 33.015625 6.390625 
Q 39.65625 6.390625 43.53125 10.953125 
Q 47.40625 15.53125 47.40625 23.390625 
Q 47.40625 31.296875 43.53125 35.828125 
Q 39.65625 40.375 33.015625 40.375 
z
M 52.59375 71.296875 
L 52.59375 62.3125 
Q 48.875 64.0625 45.09375 64.984375 
Q 41.3125 65.921875 37.59375 65.921875 
Q 27.828125 65.921875 22.671875 59.328125 
Q 17.53125 52.734375 16.796875 39.40625 
Q 19.671875 43.65625 24.015625 45.921875 
Q 28.375 48.1875 33.59375 48.1875 
Q 44.578125 48.1875 50.953125 41.515625 
Q 57.328125 34.859375 57.328125 23.390625 
Q 57.328125 12.15625 50.6875 5.359375 
Q 44.046875 -1.421875 33.015625 -1.421875 
Q 20.359375 -1.421875 13.671875 8.265625 
Q 6.984375 17.96875 6.984375 36.375 
Q 6.984375 53.65625 15.1875 63.9375 
Q 23.390625 74.21875 37.203125 74.21875 
Q 40.921875 74.21875 44.703125 73.484375 
Q 48.484375 72.75 52.59375 71.296875 
z
" id="DejaVuSans-54"/>
      </defs>
      <g transform="translate(193.376272 322.182437)scale(0.1 -0.1)">
       <use xlink:href="#DejaVuSans-54"/>
       <use x="63.623047" xlink:href="#DejaVuSans-48"/>
       <use x="127.246094" xlink:href="#DejaVuSans-48"/>
      </g>
     </g>
    </g>
    <g id="xtick_5">
     <g id="line2d_5">
      <g>
       <use style="stroke:#000000;stroke-width:0.8;" x="245.94912" xlink:href="#m33090b6409" y="307.584"/>
      </g>
     </g>
     <g id="text_5">
      <!-- 800 -->
      <defs>
       <path d="M 31.78125 34.625 
Q 24.75 34.625 20.71875 30.859375 
Q 16.703125 27.09375 16.703125 20.515625 
Q 16.703125 13.921875 20.71875 10.15625 
Q 24.75 6.390625 31.78125 6.390625 
Q 38.8125 6.390625 42.859375 10.171875 
Q 46.921875 13.96875 46.921875 20.515625 
Q 46.921875 27.09375 42.890625 30.859375 
Q 38.875 34.625 31.78125 34.625 
z
M 21.921875 38.8125 
Q 15.578125 40.375 12.03125 44.71875 
Q 8.5 49.078125 8.5 55.328125 
Q 8.5 64.0625 14.71875 69.140625 
Q 20.953125 74.21875 31.78125 74.21875 
Q 42.671875 74.21875 48.875 69.140625 
Q 55.078125 64.0625 55.078125 55.328125 
Q 55.078125 49.078125 51.53125 44.71875 
Q 48 40.375 41.703125 38.8125 
Q 48.828125 37.15625 52.796875 32.3125 
Q 56.78125 27.484375 56.78125 20.515625 
Q 56.78125 9.90625 50.3125 4.234375 
Q 43.84375 -1.421875 31.78125 -1.421875 
Q 19.734375 -1.421875 13.25 4.234375 
Q 6.78125 9.90625 6.78125 20.515625 
Q 6.78125 27.484375 10.78125 32.3125 
Q 14.796875 37.15625 21.921875 38.8125 
z
M 18.3125 54.390625 
Q 18.3125 48.734375 21.84375 45.5625 
Q 25.390625 42.390625 31.78125 42.390625 
Q 38.140625 42.390625 41.71875 45.5625 
Q 45.3125 48.734375 45.3125 54.390625 
Q 45.3125 60.0625 41.71875 63.234375 
Q 38.140625 66.40625 31.78125 66.40625 
Q 25.390625 66.40625 21.84375 63.234375 
Q 18.3125 60.0625 18.3125 54.390625 
z
" id="DejaVuSans-56"/>
      </defs>
      <g transform="translate(236.40537 322.182437)scale(0.1 -0.1)">
       <use xlink:href="#DejaVuSans-56"/>
       <use x="63.623047" xlink:href="#DejaVuSans-48"/>
       <use x="127.246094" xlink:href="#DejaVuSans-48"/>
      </g>
     </g>
    </g>
    <g id="xtick_6">
     <g id="line2d_6">
      <g>
       <use style="stroke:#000000;stroke-width:0.8;" x="288.978218" xlink:href="#m33090b6409" y="307.584"/>
      </g>
     </g>
     <g id="text_6">
      <!-- 1000 -->
      <defs>
       <path d="M 12.40625 8.296875 
L 28.515625 8.296875 
L 28.515625 63.921875 
L 10.984375 60.40625 
L 10.984375 69.390625 
L 28.421875 72.90625 
L 38.28125 72.90625 
L 38.28125 8.296875 
L 54.390625 8.296875 
L 54.390625 0 
L 12.40625 0 
z
" id="DejaVuSans-49"/>
      </defs>
      <g transform="translate(276.253218 322.182437)scale(0.1 -0.1)">
       <use xlink:href="#DejaVuSans-49"/>
       <use x="63.623047" xlink:href="#DejaVuSans-48"/>
       <use x="127.246094" xlink:href="#DejaVuSans-48"/>
       <use x="190.869141" xlink:href="#DejaVuSans-48"/>
      </g>
     </g>
    </g>
    <g id="xtick_7">
     <g id="line2d_7">
      <g>
       <use style="stroke:#000000;stroke-width:0.8;" x="332.007316" xlink:href="#m33090b6409" y="307.584"/>
      </g>
     </g>
     <g id="text_7">
      <!-- 1200 -->
      <g transform="translate(319.282316 322.182437)scale(0.1 -0.1)">
       <use xlink:href="#DejaVuSans-49"/>
       <use x="63.623047" xlink:href="#DejaVuSans-50"/>
       <use x="127.246094" xlink:href="#DejaVuSans-48"/>
       <use x="190.869141" xlink:href="#DejaVuSans-48"/>
      </g>
     </g>
    </g>
    <g id="xtick_8">
     <g id="line2d_8">
      <g>
       <use style="stroke:#000000;stroke-width:0.8;" x="375.036414" xlink:href="#m33090b6409" y="307.584"/>
      </g>
     </g>
     <g id="text_8">
      <!-- 1400 -->
      <g transform="translate(362.311414 322.182437)scale(0.1 -0.1)">
       <use xlink:href="#DejaVuSans-49"/>
       <use x="63.623047" xlink:href="#DejaVuSans-52"/>
       <use x="127.246094" xlink:href="#DejaVuSans-48"/>
       <use x="190.869141" xlink:href="#DejaVuSans-48"/>
      </g>
     </g>
    </g>
    <g id="text_9">
     <!-- t -->
     <defs>
      <path d="M 18.3125 70.21875 
L 18.3125 54.6875 
L 36.8125 54.6875 
L 36.8125 47.703125 
L 18.3125 47.703125 
L 18.3125 18.015625 
Q 18.3125 11.328125 20.140625 9.421875 
Q 21.96875 7.515625 27.59375 7.515625 
L 36.8125 7.515625 
L 36.8125 0 
L 27.59375 0 
Q 17.1875 0 13.234375 3.875 
Q 9.28125 7.765625 9.28125 18.015625 
L 9.28125 47.703125 
L 2.6875 47.703125 
L 2.6875 54.6875 
L 9.28125 54.6875 
L 9.28125 70.21875 
z
" id="DejaVuSans-116"/>
     </defs>
     <g transform="translate(234.199844 335.860562)scale(0.1 -0.1)">
      <use xlink:href="#DejaVuSans-116"/>
     </g>
    </g>
   </g>
   <g id="matplotlib.axis_2">
    <g id="ytick_1">
     <g id="line2d_9">
      <defs>
       <path d="M 0 0 
L -3.5 0 
" id="m3b57cda2ee" style="stroke:#000000;stroke-width:0.8;"/>
      </defs>
      <g>
       <use style="stroke:#000000;stroke-width:0.8;" x="57.6" xlink:href="#m3b57cda2ee" y="278.534202"/>
      </g>
     </g>
     <g id="text_10">
      <!-- 0.2 -->
      <defs>
       <path d="M 10.6875 12.40625 
L 21 12.40625 
L 21 0 
L 10.6875 0 
z
" id="DejaVuSans-46"/>
      </defs>
      <g transform="translate(34.696875 282.333421)scale(0.1 -0.1)">
       <use xlink:href="#DejaVuSans-48"/>
       <use x="63.623047" xlink:href="#DejaVuSans-46"/>
       <use x="95.410156" xlink:href="#DejaVuSans-50"/>
      </g>
     </g>
    </g>
    <g id="ytick_2">
     <g id="line2d_10">
      <g>
       <use style="stroke:#000000;stroke-width:0.8;" x="57.6" xlink:href="#m3b57cda2ee" y="243.924017"/>
      </g>
     </g>
     <g id="text_11">
      <!-- 0.4 -->
      <g transform="translate(34.696875 247.723236)scale(0.1 -0.1)">
       <use xlink:href="#DejaVuSans-48"/>
       <use x="63.623047" xlink:href="#DejaVuSans-46"/>
       <use x="95.410156" xlink:href="#DejaVuSans-52"/>
      </g>
     </g>
    </g>
    <g id="ytick_3">
     <g id="line2d_11">
      <g>
       <use style="stroke:#000000;stroke-width:0.8;" x="57.6" xlink:href="#m3b57cda2ee" y="209.313832"/>
      </g>
     </g>
     <g id="text_12">
      <!-- 0.6 -->
      <g transform="translate(34.696875 213.113051)scale(0.1 -0.1)">
       <use xlink:href="#DejaVuSans-48"/>
       <use x="63.623047" xlink:href="#DejaVuSans-46"/>
       <use x="95.410156" xlink:href="#DejaVuSans-54"/>
      </g>
     </g>
    </g>
    <g id="ytick_4">
     <g id="line2d_12">
      <g>
       <use style="stroke:#000000;stroke-width:0.8;" x="57.6" xlink:href="#m3b57cda2ee" y="174.703647"/>
      </g>
     </g>
     <g id="text_13">
      <!-- 0.8 -->
      <g transform="translate(34.696875 178.502866)scale(0.1 -0.1)">
       <use xlink:href="#DejaVuSans-48"/>
       <use x="63.623047" xlink:href="#DejaVuSans-46"/>
       <use x="95.410156" xlink:href="#DejaVuSans-56"/>
      </g>
     </g>
    </g>
    <g id="ytick_5">
     <g id="line2d_13">
      <g>
       <use style="stroke:#000000;stroke-width:0.8;" x="57.6" xlink:href="#m3b57cda2ee" y="140.093462"/>
      </g>
     </g>
     <g id="text_14">
      <!-- 1.0 -->
      <g transform="translate(34.696875 143.892681)scale(0.1 -0.1)">
       <use xlink:href="#DejaVuSans-49"/>
       <use x="63.623047" xlink:href="#DejaVuSans-46"/>
       <use x="95.410156" xlink:href="#DejaVuSans-48"/>
      </g>
     </g>
    </g>
    <g id="ytick_6">
     <g id="line2d_14">
      <g>
       <use style="stroke:#000000;stroke-width:0.8;" x="57.6" xlink:href="#m3b57cda2ee" y="105.483277"/>
      </g>
     </g>
     <g id="text_15">
      <!-- 1.2 -->
      <g transform="translate(34.696875 109.282496)scale(0.1 -0.1)">
       <use xlink:href="#DejaVuSans-49"/>
       <use x="63.623047" xlink:href="#DejaVuSans-46"/>
       <use x="95.410156" xlink:href="#DejaVuSans-50"/>
      </g>
     </g>
    </g>
    <g id="ytick_7">
     <g id="line2d_15">
      <g>
       <use style="stroke:#000000;stroke-width:0.8;" x="57.6" xlink:href="#m3b57cda2ee" y="70.873092"/>
      </g>
     </g>
     <g id="text_16">
      <!-- 1.4 -->
      <g transform="translate(34.696875 74.672311)scale(0.1 -0.1)">
       <use xlink:href="#DejaVuSans-49"/>
       <use x="63.623047" xlink:href="#DejaVuSans-46"/>
       <use x="95.410156" xlink:href="#DejaVuSans-52"/>
      </g>
     </g>
    </g>
    <g id="text_17">
     <!-- x(t) -->
     <defs>
      <path d="M 54.890625 54.6875 
L 35.109375 28.078125 
L 55.90625 0 
L 45.3125 0 
L 29.390625 21.484375 
L 13.484375 0 
L 2.875 0 
L 24.125 28.609375 
L 4.6875 54.6875 
L 15.28125 54.6875 
L 29.78125 35.203125 
L 44.28125 54.6875 
z
" id="DejaVuSans-120"/>
      <path d="M 31 75.875 
Q 24.46875 64.65625 21.28125 53.65625 
Q 18.109375 42.671875 18.109375 31.390625 
Q 18.109375 20.125 21.3125 9.0625 
Q 24.515625 -2 31 -13.1875 
L 23.1875 -13.1875 
Q 15.875 -1.703125 12.234375 9.375 
Q 8.59375 20.453125 8.59375 31.390625 
Q 8.59375 42.28125 12.203125 53.3125 
Q 15.828125 64.359375 23.1875 75.875 
z
" id="DejaVuSans-40"/>
      <path d="M 8.015625 75.875 
L 15.828125 75.875 
Q 23.140625 64.359375 26.78125 53.3125 
Q 30.421875 42.28125 30.421875 31.390625 
Q 30.421875 20.453125 26.78125 9.375 
Q 23.140625 -1.703125 15.828125 -13.1875 
L 8.015625 -13.1875 
Q 14.5 -2 17.703125 9.0625 
Q 20.90625 20.125 20.90625 31.390625 
Q 20.90625 42.671875 17.703125 53.65625 
Q 14.5 64.65625 8.015625 75.875 
z
" id="DejaVuSans-41"/>
     </defs>
     <g transform="translate(28.617188 183.349094)rotate(-90)scale(0.1 -0.1)">
      <use xlink:href="#DejaVuSans-120"/>
      <use x="59.179688" xlink:href="#DejaVuSans-40"/>
      <use x="98.193359" xlink:href="#DejaVuSans-116"/>
      <use x="137.402344" xlink:href="#DejaVuSans-41"/>
     </g>
    </g>
   </g>
   <g id="line2d_16">
    <path clip-path="url(#pfb0c0adc9e)" d="M 73.832727 53.568 
L 74.478164 123.913201 
L 75.1236 175.194852 
L 75.769037 212.579176 
L 76.414473 239.832348 
L 77.05991 259.699911 
L 77.705346 274.183364 
L 78.350783 284.741801 
L 78.996219 292.438902 
L 79.211365 294.50945 
L 79.42651 295.488 
L 79.641656 295.039931 
L 79.856801 291.60099 
L 80.071947 282.767851 
L 81.362819 193.113739 
L 81.79311 183.370045 
L 82.008256 181.687802 
L 82.223401 181.63815 
L 82.438547 182.912492 
L 82.868838 188.416643 
L 83.514274 201.178919 
L 85.450584 243.037012 
L 85.665729 243.972443 
L 85.880875 241.744191 
L 86.09602 235.927567 
L 86.526311 215.898703 
L 87.817184 148.643348 
L 88.462621 127.297069 
L 88.892912 118.550056 
L 89.323203 114.383683 
L 89.538348 113.952458 
L 89.753494 114.538558 
L 89.968639 116.058655 
L 90.39893 121.529315 
L 91.689803 142.891244 
L 91.904948 142.703547 
L 92.120094 140.359378 
L 92.550385 130.008816 
L 92.980676 117.657765 
L 93.195821 114.01133 
L 93.410967 113.39391 
L 93.626112 115.908998 
L 94.056403 128.033379 
L 95.347276 174.950929 
L 95.777567 184.458879 
L 95.992713 187.163509 
L 96.207858 188.293447 
L 96.423004 187.744335 
L 96.638149 185.529279 
L 97.06844 177.286259 
L 97.713877 165.27747 
L 97.929022 164.42568 
L 98.144168 166.036115 
L 98.574459 175.325732 
L 99.219895 191.00267 
L 99.435041 193.214525 
L 99.650186 192.706249 
L 99.865332 189.056054 
L 100.295623 173.521548 
L 101.156205 136.743179 
L 101.801641 118.908179 
L 102.877369 97.418248 
L 103.522805 89.382111 
L 104.383387 81.014834 
L 104.598532 79.996816 
L 104.813678 79.610457 
L 105.243969 79.470447 
L 105.459114 78.881162 
L 106.104551 75.62061 
L 106.319696 77.222875 
L 106.534842 81.710836 
L 106.965133 98.101003 
L 109.546879 218.899086 
L 110.407461 243.355587 
L 111.052897 256.321364 
L 111.913479 269.002245 
L 112.34377 272.10574 
L 112.558916 271.812236 
L 112.774061 269.482525 
L 112.989207 264.281782 
L 113.419498 242.928172 
L 114.495225 173.952323 
L 114.925516 160.602039 
L 115.355807 155.216717 
L 115.570952 154.834523 
L 115.786098 155.653893 
L 116.216389 160.011727 
L 116.861825 170.802426 
L 118.367844 199.484453 
L 118.582989 201.077957 
L 118.798135 200.747679 
L 119.01328 197.945805 
L 119.443571 184.314431 
L 120.519299 138.092061 
L 121.164735 124.148982 
L 123.101045 90.763063 
L 123.531336 87.946064 
L 123.746481 87.589338 
L 123.961627 87.74746 
L 124.391918 88.47626 
L 124.607063 88.290481 
L 124.822209 87.270329 
L 125.467645 81.848766 
L 125.682791 82.846273 
L 125.897936 86.638315 
L 126.328227 100.54696 
L 127.403954 148.212394 
L 128.694827 204.608911 
L 129.555409 231.530786 
L 130.200846 245.36009 
L 131.061428 259.619113 
L 131.491719 264.664405 
L 131.706864 265.902147 
L 131.92201 265.811804 
L 132.137155 263.912733 
L 132.352301 259.625793 
L 132.782592 241.929645 
L 134.073465 165.053504 
L 134.503756 153.763765 
L 134.718901 150.992202 
L 134.934047 149.755344 
L 135.149192 149.780409 
L 135.364338 150.822504 
L 135.794629 155.164218 
L 136.440065 165.405759 
L 137.730938 188.571886 
L 137.946083 190.325503 
L 138.161229 190.456143 
L 138.376374 188.484002 
L 138.59152 184.068081 
L 139.021811 168.299495 
L 139.667247 140.842739 
L 140.097538 130.447333 
L 140.527829 125.072597 
L 141.173266 118.136891 
L 141.818702 107.826952 
L 142.679284 92.99849 
L 143.109575 88.260884 
L 143.539866 85.581134 
L 143.970157 83.3929 
L 144.615594 78.557434 
L 144.830739 78.689063 
L 145.045885 81.522199 
L 145.476176 94.536092 
L 148.918504 226.299861 
L 149.779085 247.286951 
L 150.424522 259.237315 
L 150.854813 264.414467 
L 151.069958 265.435224 
L 151.285104 264.941884 
L 151.500249 262.522843 
L 151.715395 257.777379 
L 152.145686 240.394054 
L 153.651704 156.254667 
L 154.081995 146.871026 
L 154.297141 144.879193 
L 154.512286 144.354387 
L 154.727432 145.056541 
L 155.157723 149.310086 
L 155.803159 160.464499 
L 157.094032 185.324649 
L 157.309178 187.033346 
L 157.524323 187.099158 
L 157.739469 185.156123 
L 157.954614 180.950928 
L 158.384905 165.983849 
L 159.030342 139.345024 
L 159.460633 130.651841 
L 159.675778 128.99571 
L 160.53636 125.799095 
L 160.966651 120.926811 
L 161.612087 108.704318 
L 162.257524 96.555038 
L 162.687815 91.13035 
L 163.978688 80.07079 
L 164.193833 80.521996 
L 164.408979 83.804767 
L 164.83927 97.266935 
L 165.914997 133.942539 
L 166.990725 168.073689 
L 168.496743 221.686691 
L 169.357325 244.070614 
L 170.002762 256.304736 
L 170.217907 258.765282 
L 170.433053 259.939838 
L 170.648198 259.515153 
L 170.863344 257.232082 
L 171.293635 246.663491 
L 171.723926 228.609009 
L 173.229944 149.787329 
L 173.660235 139.891709 
L 173.87538 137.660707 
L 174.090526 136.94858 
L 174.305671 137.530097 
L 174.520817 139.199344 
L 174.951108 145.099052 
L 175.81169 162.625741 
L 176.457126 173.961717 
L 176.672272 175.841116 
L 176.887417 176.276195 
L 177.102563 175.035359 
L 177.317708 171.95226 
L 177.747999 160.109254 
L 178.608581 129.97297 
L 178.823727 127.372043 
L 179.038872 127.16232 
L 179.254018 128.536193 
L 179.899454 134.635274 
L 180.1146 135.539794 
L 180.329745 135.327111 
L 180.544891 133.855618 
L 180.975182 127.289059 
L 182.696346 92.318808 
L 183.126637 87.128776 
L 183.341782 86.050424 
L 183.556928 87.181771 
L 183.772073 91.283945 
L 184.417509 114.76014 
L 184.8478 128.80494 
L 185.278091 137.264423 
L 185.708382 141.623652 
L 186.138673 145.58272 
L 186.568964 152.870334 
L 186.999255 164.942424 
L 189.15071 236.095395 
L 189.581001 243.269669 
L 189.796147 244.300376 
L 190.011292 243.121065 
L 190.226438 239.654559 
L 190.656729 227.369378 
L 192.377893 162.770669 
L 193.023329 136.418116 
L 193.45362 125.389268 
L 193.668766 122.51684 
L 193.883911 121.291573 
L 194.099057 121.535056 
L 194.314202 123.042112 
L 194.744493 128.94207 
L 195.605075 143.970821 
L 195.82022 146.193016 
L 196.035366 147.106968 
L 196.250511 146.571049 
L 196.465657 144.594793 
L 196.895948 136.90331 
L 197.971675 109.855814 
L 198.186821 108.15253 
L 198.401966 109.680316 
L 198.832257 120.830338 
L 199.907985 156.374579 
L 200.338276 162.880132 
L 200.553421 163.537396 
L 200.768567 162.491507 
L 201.198858 156.48543 
L 201.844294 145.228376 
L 202.05944 142.95665 
L 202.274585 142.188062 
L 202.489731 143.264815 
L 202.704876 146.352934 
L 203.135167 157.977686 
L 204.210895 192.296059 
L 204.42604 194.450477 
L 204.641186 193.623872 
L 204.856331 189.718656 
L 205.286622 174.93008 
L 206.36235 133.71469 
L 206.792641 123.638858 
L 207.007786 120.812967 
L 207.222932 119.541558 
L 207.438077 119.600207 
L 208.083513 122.241882 
L 208.298659 121.614836 
L 208.513804 119.336784 
L 209.159241 105.961911 
L 209.589532 98.92682 
L 210.234968 93.716298 
L 210.665259 89.334679 
L 211.09555 84.7933 
L 211.310696 84.656147 
L 211.525841 87.078464 
L 211.956132 99.558374 
L 213.462151 157.708402 
L 214.537878 185.023523 
L 215.828751 224.259912 
L 216.904479 248.637568 
L 217.33477 254.73294 
L 217.549915 255.932578 
L 217.765061 255.2238 
L 217.980206 251.989405 
L 218.410497 236.592441 
L 220.346806 138.20139 
L 220.777097 129.938138 
L 220.992243 128.203357 
L 221.207388 127.820766 
L 221.422534 128.598922 
L 221.852825 132.992394 
L 222.498261 144.665758 
L 223.358843 162.370896 
L 223.573989 165.21762 
L 223.789134 166.536171 
L 224.00428 165.890996 
L 224.219425 163.031871 
L 224.649716 151.061568 
L 225.295153 128.602417 
L 225.510298 125.01446 
L 225.725444 124.629924 
L 225.940589 126.937324 
L 226.586026 141.152516 
L 227.016317 149.935503 
L 227.446608 154.442199 
L 227.661753 154.521977 
L 227.876899 153.004555 
L 228.30719 145.489047 
L 229.813208 107.466639 
L 230.028354 104.804684 
L 230.243499 104.305706 
L 230.458644 106.733558 
L 230.888935 119.502681 
L 231.534372 140.553531 
L 231.749517 144.152541 
L 231.964663 145.39687 
L 232.179808 144.444697 
L 232.610099 137.924143 
L 233.470681 122.078971 
L 233.685827 120.220636 
L 233.900972 120.114167 
L 234.116118 122.136273 
L 234.546409 132.642593 
L 235.406991 167.640474 
L 236.052427 191.486397 
L 236.267573 196.308666 
L 236.482718 198.495031 
L 236.697864 197.66599 
L 236.913009 194.0427 
L 237.988737 166.811873 
L 238.203882 165.01312 
L 238.419028 165.157216 
L 238.634173 167.01566 
L 239.064464 174.121265 
L 239.709901 184.820212 
L 239.925046 185.767166 
L 240.140192 184.203862 
L 240.355337 179.665869 
L 240.785628 163.074094 
L 241.431065 136.783368 
L 241.861356 126.104636 
L 243.797665 92.308005 
L 244.873392 81.103718 
L 245.303683 78.543234 
L 245.94912 75.514997 
L 246.164265 74.295202 
L 246.379411 73.985995 
L 246.594556 75.872169 
L 246.809702 80.627382 
L 247.239993 96.867318 
L 250.036884 220.928095 
L 250.897466 244.77317 
L 251.758048 261.606104 
L 252.403485 270.057175 
L 252.61863 271.35308 
L 252.833776 271.331631 
L 253.048921 269.47164 
L 253.264067 265.135316 
L 253.694357 246.838463 
L 254.98523 167.896617 
L 255.415521 156.552279 
L 255.630667 153.802223 
L 255.845812 152.649474 
L 256.060958 152.844797 
L 256.276103 154.158627 
L 256.706394 159.34028 
L 257.351831 171.175414 
L 258.642704 196.745303 
L 258.857849 198.783423 
L 259.072995 199.129549 
L 259.28814 197.270753 
L 259.503286 192.839939 
L 259.933577 176.625279 
L 260.794159 139.684166 
L 261.22445 129.878629 
L 262.945614 100.184705 
L 263.59105 90.922941 
L 264.021341 88.293118 
L 264.236487 87.93152 
L 264.666778 88.002058 
L 264.881923 87.753969 
L 265.097068 86.85026 
L 265.742505 81.388863 
L 265.95765 81.816374 
L 266.172796 85.018384 
L 266.603087 98.034409 
L 267.678814 142.90369 
L 269.184833 206.834687 
L 270.045415 232.881455 
L 270.905997 250.525509 
L 271.551433 260.920915 
L 271.981724 265.0666 
L 272.19687 265.487861 
L 272.412015 264.295742 
L 272.627161 261.01048 
L 273.057452 246.300874 
L 273.702888 205.864556 
L 274.348325 168.621599 
L 274.778616 154.714795 
L 275.208907 148.719902 
L 275.424052 148.011839 
L 275.639198 148.479899 
L 275.854343 149.898017 
L 276.284634 154.875366 
L 276.93007 165.95613 
L 278.005798 185.994501 
L 278.220943 188.282772 
L 278.436089 189.166718 
L 278.651234 188.196771 
L 278.86638 184.982629 
L 279.296671 171.439667 
L 280.157253 136.710333 
L 280.587544 128.79078 
L 281.878417 115.863593 
L 283.599581 88.613335 
L 284.890454 79.25184 
L 285.105599 78.618995 
L 285.320745 80.374188 
L 285.751036 91.874512 
L 289.408509 226.845687 
L 290.269091 247.775372 
L 290.914527 259.504149 
L 291.344818 263.770542 
L 291.559964 263.993279 
L 291.775109 262.460207 
L 291.990255 258.815808 
L 292.420546 244.293987 
L 293.065982 207.008319 
L 293.711419 168.749785 
L 294.14171 152.219461 
L 294.572001 143.892158 
L 294.787146 142.323405 
L 295.002292 142.162166 
L 295.217437 143.179169 
L 295.647728 147.962222 
L 296.293165 159.741016 
L 297.368892 181.106938 
L 297.584038 183.445068 
L 297.799183 184.345 
L 298.014329 183.456227 
L 298.229474 180.497055 
L 298.659765 168.037544 
L 299.520347 134.904361 
L 299.735492 131.034645 
L 299.950638 129.253528 
L 300.165783 128.846718 
L 300.596074 129.368672 
L 300.81122 129.224818 
L 301.026365 128.336768 
L 301.241511 126.523667 
L 301.671802 120.09167 
L 302.962675 95.060894 
L 303.823257 85.418515 
L 304.253548 81.422868 
L 304.468693 81.109813 
L 304.683839 83.413835 
L 305.11413 95.862307 
L 305.974712 125.685115 
L 307.695876 173.628635 
L 309.201894 225.658064 
L 310.062476 247.209239 
L 310.492767 254.346477 
L 310.707913 256.179548 
L 310.923058 256.421739 
L 311.138204 254.812582 
L 311.353349 251.247012 
L 311.78364 238.730151 
L 312.429076 209.963208 
L 313.719949 145.75722 
L 314.15024 135.712052 
L 314.365386 133.401224 
L 314.580531 132.639024 
L 314.795677 133.211357 
L 315.010822 134.916234 
L 315.441113 140.997544 
L 316.947132 168.401911 
L 317.162277 169.410626 
L 317.377423 168.904372 
L 317.592568 166.762433 
L 318.022859 157.432589 
L 319.098587 124.500663 
L 319.313732 123.866713 
L 319.528878 125.615784 
L 320.604605 141.697268 
L 320.819751 142.553537 
L 321.034896 141.947182 
L 321.250042 139.841063 
L 321.680333 131.805563 
L 322.971205 101.933501 
L 323.401496 95.703933 
L 323.616642 94.343919 
L 323.831787 95.09153 
L 324.046933 98.659088 
L 324.477224 113.326096 
L 325.12266 136.933622 
L 325.552951 144.580542 
L 325.768097 145.618772 
L 325.983242 145.282894 
L 326.628679 141.748948 
L 326.843824 141.684449 
L 327.05897 143.030404 
L 327.274115 146.073855 
L 327.704406 157.040383 
L 329.855861 226.004501 
L 330.071007 227.052646 
L 330.286152 225.300675 
L 330.716443 213.942123 
L 331.792171 176.860601 
L 332.437607 164.822343 
L 332.867898 156.771056 
L 333.298189 144.338751 
L 334.158771 118.061509 
L 334.589062 112.980832 
L 334.804207 112.733331 
L 335.019353 113.710075 
L 336.09508 122.655233 
L 336.310226 121.939443 
L 336.525371 119.788783 
L 336.955662 112.206043 
L 337.816244 95.866839 
L 338.246535 91.274348 
L 338.461681 90.515621 
L 338.676826 91.417348 
L 338.891972 94.623808 
L 339.322263 108.68244 
L 340.828281 172.157522 
L 341.258572 181.106072 
L 342.549445 199.62792 
L 344.485755 244.56882 
L 344.7009 246.623918 
L 344.916046 246.78649 
L 345.131191 244.262155 
L 345.346337 238.330653 
L 345.776628 216.601541 
L 346.852355 155.562729 
L 347.497791 132.564504 
L 347.928082 122.526511 
L 348.358373 117.124199 
L 348.573519 116.259645 
L 348.788664 116.568819 
L 349.00381 117.952318 
L 349.434101 123.406185 
L 350.294683 140.276306 
L 350.724974 147.40257 
L 350.940119 149.017416 
L 351.155265 148.583214 
L 351.37041 145.786989 
L 351.800701 134.077033 
L 352.230992 121.106873 
L 352.446138 117.670042 
L 352.661283 117.336026 
L 352.876429 119.984961 
L 353.30672 131.72993 
L 354.597593 174.355514 
L 355.027884 181.142079 
L 355.243029 182.167381 
L 355.458175 181.462346 
L 355.67332 179.038194 
L 356.103611 169.929367 
L 356.749048 153.359936 
L 356.964193 149.82905 
L 357.179339 148.598836 
L 357.394484 150.177128 
L 357.824775 160.211607 
L 358.470211 176.83866 
L 358.685357 179.081757 
L 358.900502 178.550058 
L 359.115648 174.995296 
L 359.545939 160.64145 
L 360.406521 127.996125 
L 361.051957 111.191061 
L 361.697394 98.377222 
L 362.127685 93.945626 
L 362.34283 93.832464 
L 362.988267 96.800383 
L 363.203412 96.119289 
L 363.633703 91.389348 
L 364.27914 83.901674 
L 364.924576 78.537155 
L 365.139722 78.216038 
L 365.354867 80.146324 
L 365.570013 84.957039 
L 366.000304 102.066936 
L 368.151759 206.170534 
L 368.797195 223.991032 
L 369.872922 247.878799 
L 370.733504 262.702066 
L 371.163795 267.546361 
L 371.378941 268.535969 
L 371.594086 267.903973 
L 371.809232 264.868482 
L 372.024377 258.511797 
L 372.454668 234.439372 
L 373.31525 178.042621 
L 373.745541 162.201464 
L 374.175832 154.032762 
L 374.390978 152.136709 
L 374.606123 151.443426 
L 374.821269 151.808617 
L 375.036414 153.097575 
L 375.466705 157.922141 
L 376.112142 169.026962 
L 377.187869 190.011852 
L 377.403015 192.669952 
L 377.61816 193.790985 
L 377.833306 192.743935 
L 378.048451 189.048936 
L 378.478742 173.945995 
L 379.339324 137.796275 
L 379.769615 128.119606 
L 380.415052 119.834006 
L 381.060488 110.934008 
L 382.351361 90.066964 
L 382.781652 86.772643 
L 383.642234 83.570162 
L 384.28767 79.00253 
L 384.502816 80.211676 
L 384.717961 84.272957 
L 385.148252 98.869248 
L 388.160289 219.610674 
L 389.020871 242.259166 
L 389.881453 258.609881 
L 390.311744 264.294033 
L 390.52689 265.828198 
L 390.742035 266.035358 
L 390.957181 264.469976 
L 391.172326 260.636772 
L 391.602617 244.663175 
L 392.248053 204.051791 
L 392.89349 167.055579 
L 393.323781 152.864843 
L 393.754072 146.630159 
L 393.969217 145.885818 
L 394.184363 146.387224 
L 394.399508 147.908924 
L 394.829799 153.274137 
L 395.475236 165.153293 
L 396.550963 186.016871 
L 396.766109 188.228169 
L 396.981254 188.910953 
L 397.1964 187.639343 
L 397.411545 184.085387 
L 397.841836 170.033599 
L 398.487273 142.380855 
L 398.487273 142.380855 
" style="fill:none;stroke:#1f77b4;stroke-linecap:square;stroke-width:1.5;"/>
   </g>
   <g id="patch_3">
    <path d="M 57.6 307.584 
L 57.6 41.472 
" style="fill:none;stroke:#000000;stroke-linecap:square;stroke-linejoin:miter;stroke-width:0.8;"/>
   </g>
   <g id="patch_4">
    <path d="M 414.72 307.584 
L 414.72 41.472 
" style="fill:none;stroke:#000000;stroke-linecap:square;stroke-linejoin:miter;stroke-width:0.8;"/>
   </g>
   <g id="patch_5">
    <path d="M 57.6 307.584 
L 414.72 307.584 
" style="fill:none;stroke:#000000;stroke-linecap:square;stroke-linejoin:miter;stroke-width:0.8;"/>
   </g>
   <g id="patch_6">
    <path d="M 57.6 41.472 
L 414.72 41.472 
" style="fill:none;stroke:#000000;stroke-linecap:square;stroke-linejoin:miter;stroke-width:0.8;"/>
   </g>
  </g>
 </g>
 <defs>
  <clipPath id="pfb0c0adc9e">
   <rect height="266.112" width="357.12" x="57.6" y="41.472"/>
  </clipPath>
 </defs>
</svg>
