<?xml version="1.0" encoding="utf-8" standalone="no"?>
<!DOCTYPE svg PUBLIC "-//W3C//DTD SVG 1.1//EN"
  "http://www.w3.org/Graphics/SVG/1.1/DTD/svg11.dtd">
<!-- Created with matplotlib (https://matplotlib.org/) -->
<svg height="345.6pt" version="1.1" viewBox="0 0 460.8 345.6" width="460.8pt" xmlns="http://www.w3.org/2000/svg" xmlns:xlink="http://www.w3.org/1999/xlink">
 <defs>
  <style type="text/css">
*{stroke-linecap:butt;stroke-linejoin:round;}
  </style>
 </defs>
 <g id="figure_1">
  <g id="patch_1">
   <path d="M 0 345.6 
L 460.8 345.6 
L 460.8 0 
L 0 0 
z
" style="fill:#ffffff;"/>
  </g>
  <g id="axes_1">
   <g id="patch_2">
    <path d="M 57.6 307.584 
L 414.72 307.584 
L 414.72 41.472 
L 57.6 41.472 
z
" style="fill:#ffffff;"/>
   </g>
   <g id="PathCollection_1">
    <defs>
     <path d="M 0 3 
C 0.795609 3 1.55874 2.683901 2.12132 2.12132 
C 2.683901 1.55874 3 0.795609 3 0 
C 3 -0.795609 2.683901 -1.55874 2.12132 -2.12132 
C 1.55874 -2.683901 0.795609 -3 0 -3 
C -0.795609 -3 -1.55874 -2.683901 -2.12132 -2.12132 
C -2.683901 -1.55874 -3 -0.795609 -3 0 
C -3 0.795609 -2.683901 1.55874 -2.12132 2.12132 
C -1.55874 2.683901 -0.795609 3 0 3 
z
" id="m7a598ed669" style="stroke:#1f77b4;"/>
    </defs>
    <g clip-path="url(#p58fcc7fcec)">
     <use style="fill:#1f77b4;stroke:#1f77b4;" x="280.601417" xlink:href="#m7a598ed669" y="136.22177"/>
     <use style="fill:#1f77b4;stroke:#1f77b4;" x="314.708768" xlink:href="#m7a598ed669" y="152.6705"/>
     <use style="fill:#1f77b4;stroke:#1f77b4;" x="268.110926" xlink:href="#m7a598ed669" y="115.022599"/>
     <use style="fill:#1f77b4;stroke:#1f77b4;" x="295.046014" xlink:href="#m7a598ed669" y="111.125369"/>
     <use style="fill:#1f77b4;stroke:#1f77b4;" x="285.055858" xlink:href="#m7a598ed669" y="146.961522"/>
     <use style="fill:#1f77b4;stroke:#1f77b4;" x="275.075688" xlink:href="#m7a598ed669" y="143.767179"/>
     <use style="fill:#1f77b4;stroke:#1f77b4;" x="286.424056" xlink:href="#m7a598ed669" y="163.177028"/>
     <use style="fill:#1f77b4;stroke:#1f77b4;" x="336.642754" xlink:href="#m7a598ed669" y="137.693629"/>
     <use style="fill:#1f77b4;stroke:#1f77b4;" x="263.480297" xlink:href="#m7a598ed669" y="136.977726"/>
     <use style="fill:#1f77b4;stroke:#1f77b4;" x="314.97684" xlink:href="#m7a598ed669" y="158.97519"/>
     <use style="fill:#1f77b4;stroke:#1f77b4;" x="292.198145" xlink:href="#m7a598ed669" y="125.102759"/>
     <use style="fill:#1f77b4;stroke:#1f77b4;" x="264.332318" xlink:href="#m7a598ed669" y="146.318599"/>
     <use style="fill:#1f77b4;stroke:#1f77b4;" x="296.454338" xlink:href="#m7a598ed669" y="177.79753"/>
     <use style="fill:#1f77b4;stroke:#1f77b4;" x="278.496695" xlink:href="#m7a598ed669" y="169.739118"/>
     <use style="fill:#1f77b4;stroke:#1f77b4;" x="325.247848" xlink:href="#m7a598ed669" y="141.494732"/>
     <use style="fill:#1f77b4;stroke:#1f77b4;" x="275.264928" xlink:href="#m7a598ed669" y="125.11343"/>
     <use style="fill:#1f77b4;stroke:#1f77b4;" x="237.686622" xlink:href="#m7a598ed669" y="138.758982"/>
     <use style="fill:#1f77b4;stroke:#1f77b4;" x="297.758965" xlink:href="#m7a598ed669" y="136.75381"/>
     <use style="fill:#1f77b4;stroke:#1f77b4;" x="308.458649" xlink:href="#m7a598ed669" y="163.531123"/>
     <use style="fill:#1f77b4;stroke:#1f77b4;" x="259.855364" xlink:href="#m7a598ed669" y="135.576255"/>
     <use style="fill:#1f77b4;stroke:#1f77b4;" x="268.575165" xlink:href="#m7a598ed669" y="136.036797"/>
     <use style="fill:#1f77b4;stroke:#1f77b4;" x="252.752534" xlink:href="#m7a598ed669" y="142.982525"/>
     <use style="fill:#1f77b4;stroke:#1f77b4;" x="262.29985" xlink:href="#m7a598ed669" y="116.626807"/>
     <use style="fill:#1f77b4;stroke:#1f77b4;" x="288.865161" xlink:href="#m7a598ed669" y="142.036366"/>
     <use style="fill:#1f77b4;stroke:#1f77b4;" x="268.092843" xlink:href="#m7a598ed669" y="106.035457"/>
     <use style="fill:#1f77b4;stroke:#1f77b4;" x="277.183902" xlink:href="#m7a598ed669" y="115.25467"/>
     <use style="fill:#1f77b4;stroke:#1f77b4;" x="279.258056" xlink:href="#m7a598ed669" y="142.546855"/>
     <use style="fill:#1f77b4;stroke:#1f77b4;" x="259.056972" xlink:href="#m7a598ed669" y="136.539629"/>
     <use style="fill:#1f77b4;stroke:#1f77b4;" x="261.506117" xlink:href="#m7a598ed669" y="157.262749"/>
     <use style="fill:#1f77b4;stroke:#1f77b4;" x="284.633458" xlink:href="#m7a598ed669" y="124.204917"/>
     <use style="fill:#1f77b4;stroke:#1f77b4;" x="300.710946" xlink:href="#m7a598ed669" y="127.715189"/>
     <use style="fill:#1f77b4;stroke:#1f77b4;" x="273.090051" xlink:href="#m7a598ed669" y="101.282098"/>
     <use style="fill:#1f77b4;stroke:#1f77b4;" x="249.662772" xlink:href="#m7a598ed669" y="138.908795"/>
     <use style="fill:#1f77b4;stroke:#1f77b4;" x="279.826902" xlink:href="#m7a598ed669" y="149.709368"/>
     <use style="fill:#1f77b4;stroke:#1f77b4;" x="255.586011" xlink:href="#m7a598ed669" y="133.026096"/>
     <use style="fill:#1f77b4;stroke:#1f77b4;" x="267.777428" xlink:href="#m7a598ed669" y="136.551457"/>
     <use style="fill:#1f77b4;stroke:#1f77b4;" x="301.5958" xlink:href="#m7a598ed669" y="115.578839"/>
     <use style="fill:#1f77b4;stroke:#1f77b4;" x="296.621566" xlink:href="#m7a598ed669" y="140.104933"/>
     <use style="fill:#1f77b4;stroke:#1f77b4;" x="264.089153" xlink:href="#m7a598ed669" y="150.564684"/>
     <use style="fill:#1f77b4;stroke:#1f77b4;" x="299.750318" xlink:href="#m7a598ed669" y="138.226415"/>
     <use style="fill:#1f77b4;stroke:#1f77b4;" x="301.812359" xlink:href="#m7a598ed669" y="172.621373"/>
     <use style="fill:#1f77b4;stroke:#1f77b4;" x="243.429229" xlink:href="#m7a598ed669" y="159.04138"/>
     <use style="fill:#1f77b4;stroke:#1f77b4;" x="272.392306" xlink:href="#m7a598ed669" y="147.812657"/>
     <use style="fill:#1f77b4;stroke:#1f77b4;" x="280.024858" xlink:href="#m7a598ed669" y="129.252463"/>
     <use style="fill:#1f77b4;stroke:#1f77b4;" x="247.263596" xlink:href="#m7a598ed669" y="135.750511"/>
     <use style="fill:#1f77b4;stroke:#1f77b4;" x="283.88169" xlink:href="#m7a598ed669" y="160.129707"/>
     <use style="fill:#1f77b4;stroke:#1f77b4;" x="267.38792" xlink:href="#m7a598ed669" y="139.128965"/>
     <use style="fill:#1f77b4;stroke:#1f77b4;" x="241.461316" xlink:href="#m7a598ed669" y="149.546116"/>
     <use style="fill:#1f77b4;stroke:#1f77b4;" x="272.534282" xlink:href="#m7a598ed669" y="145.368833"/>
     <use style="fill:#1f77b4;stroke:#1f77b4;" x="275.442182" xlink:href="#m7a598ed669" y="99.821445"/>
     <use style="fill:#1f77b4;stroke:#1f77b4;" x="290.904803" xlink:href="#m7a598ed669" y="146.967153"/>
     <use style="fill:#1f77b4;stroke:#1f77b4;" x="273.498299" xlink:href="#m7a598ed669" y="143.522353"/>
     <use style="fill:#1f77b4;stroke:#1f77b4;" x="317.589567" xlink:href="#m7a598ed669" y="135.037355"/>
     <use style="fill:#1f77b4;stroke:#1f77b4;" x="287.132785" xlink:href="#m7a598ed669" y="141.149488"/>
     <use style="fill:#1f77b4;stroke:#1f77b4;" x="256.837724" xlink:href="#m7a598ed669" y="132.826426"/>
     <use style="fill:#1f77b4;stroke:#1f77b4;" x="305.156365" xlink:href="#m7a598ed669" y="173.912974"/>
     <use style="fill:#1f77b4;stroke:#1f77b4;" x="308.773084" xlink:href="#m7a598ed669" y="161.707099"/>
     <use style="fill:#1f77b4;stroke:#1f77b4;" x="257.191186" xlink:href="#m7a598ed669" y="171.432178"/>
     <use style="fill:#1f77b4;stroke:#1f77b4;" x="251.46345" xlink:href="#m7a598ed669" y="119.973535"/>
     <use style="fill:#1f77b4;stroke:#1f77b4;" x="292.769625" xlink:href="#m7a598ed669" y="146.37823"/>
     <use style="fill:#1f77b4;stroke:#1f77b4;" x="248.76742" xlink:href="#m7a598ed669" y="129.219392"/>
     <use style="fill:#1f77b4;stroke:#1f77b4;" x="264.105124" xlink:href="#m7a598ed669" y="113.451294"/>
     <use style="fill:#1f77b4;stroke:#1f77b4;" x="277.748161" xlink:href="#m7a598ed669" y="122.867996"/>
     <use style="fill:#1f77b4;stroke:#1f77b4;" x="274.371689" xlink:href="#m7a598ed669" y="138.008226"/>
     <use style="fill:#1f77b4;stroke:#1f77b4;" x="291.525578" xlink:href="#m7a598ed669" y="101.51308"/>
     <use style="fill:#1f77b4;stroke:#1f77b4;" x="270.135908" xlink:href="#m7a598ed669" y="135.462933"/>
     <use style="fill:#1f77b4;stroke:#1f77b4;" x="297.226421" xlink:href="#m7a598ed669" y="157.360448"/>
     <use style="fill:#1f77b4;stroke:#1f77b4;" x="303.787773" xlink:href="#m7a598ed669" y="123.437805"/>
     <use style="fill:#1f77b4;stroke:#1f77b4;" x="247.807121" xlink:href="#m7a598ed669" y="162.491161"/>
     <use style="fill:#1f77b4;stroke:#1f77b4;" x="265.899182" xlink:href="#m7a598ed669" y="144.182358"/>
     <use style="fill:#1f77b4;stroke:#1f77b4;" x="271.451272" xlink:href="#m7a598ed669" y="142.464888"/>
     <use style="fill:#1f77b4;stroke:#1f77b4;" x="307.689115" xlink:href="#m7a598ed669" y="148.177738"/>
     <use style="fill:#1f77b4;stroke:#1f77b4;" x="266.211902" xlink:href="#m7a598ed669" y="129.578629"/>
     <use style="fill:#1f77b4;stroke:#1f77b4;" x="298.098041" xlink:href="#m7a598ed669" y="143.85945"/>
     <use style="fill:#1f77b4;stroke:#1f77b4;" x="285.502213" xlink:href="#m7a598ed669" y="141.308327"/>
     <use style="fill:#1f77b4;stroke:#1f77b4;" x="275.744487" xlink:href="#m7a598ed669" y="154.500723"/>
     <use style="fill:#1f77b4;stroke:#1f77b4;" x="265.22507" xlink:href="#m7a598ed669" y="150.583497"/>
     <use style="fill:#1f77b4;stroke:#1f77b4;" x="267.930163" xlink:href="#m7a598ed669" y="140.141856"/>
     <use style="fill:#1f77b4;stroke:#1f77b4;" x="288.384946" xlink:href="#m7a598ed669" y="131.145002"/>
     <use style="fill:#1f77b4;stroke:#1f77b4;" x="262.944089" xlink:href="#m7a598ed669" y="142.968523"/>
     <use style="fill:#1f77b4;stroke:#1f77b4;" x="276.206229" xlink:href="#m7a598ed669" y="133.76261"/>
     <use style="fill:#1f77b4;stroke:#1f77b4;" x="311.879129" xlink:href="#m7a598ed669" y="122.410209"/>
     <use style="fill:#1f77b4;stroke:#1f77b4;" x="269.900753" xlink:href="#m7a598ed669" y="123.757233"/>
     <use style="fill:#1f77b4;stroke:#1f77b4;" x="279.591158" xlink:href="#m7a598ed669" y="143.00868"/>
     <use style="fill:#1f77b4;stroke:#1f77b4;" x="300.075298" xlink:href="#m7a598ed669" y="137.034287"/>
     <use style="fill:#1f77b4;stroke:#1f77b4;" x="256.222011" xlink:href="#m7a598ed669" y="151.235923"/>
     <use style="fill:#1f77b4;stroke:#1f77b4;" x="232.85266" xlink:href="#m7a598ed669" y="138.876487"/>
     <use style="fill:#1f77b4;stroke:#1f77b4;" x="305.925128" xlink:href="#m7a598ed669" y="144.034191"/>
     <use style="fill:#1f77b4;stroke:#1f77b4;" x="261.519258" xlink:href="#m7a598ed669" y="163.489508"/>
     <use style="fill:#1f77b4;stroke:#1f77b4;" x="229.955893" xlink:href="#m7a598ed669" y="145.05677"/>
     <use style="fill:#1f77b4;stroke:#1f77b4;" x="294.223182" xlink:href="#m7a598ed669" y="135.527884"/>
     <use style="fill:#1f77b4;stroke:#1f77b4;" x="261.202091" xlink:href="#m7a598ed669" y="144.104294"/>
     <use style="fill:#1f77b4;stroke:#1f77b4;" x="292.818711" xlink:href="#m7a598ed669" y="136.429907"/>
     <use style="fill:#1f77b4;stroke:#1f77b4;" x="233.792122" xlink:href="#m7a598ed669" y="132.847856"/>
     <use style="fill:#1f77b4;stroke:#1f77b4;" x="258.950946" xlink:href="#m7a598ed669" y="141.343129"/>
     <use style="fill:#1f77b4;stroke:#1f77b4;" x="277.120853" xlink:href="#m7a598ed669" y="136.739862"/>
     <use style="fill:#1f77b4;stroke:#1f77b4;" x="283.587952" xlink:href="#m7a598ed669" y="170.805592"/>
     <use style="fill:#1f77b4;stroke:#1f77b4;" x="266.820418" xlink:href="#m7a598ed669" y="146.737799"/>
     <use style="fill:#1f77b4;stroke:#1f77b4;" x="275.454928" xlink:href="#m7a598ed669" y="128.340679"/>
     <use style="fill:#1f77b4;stroke:#1f77b4;" x="242.734854" xlink:href="#m7a598ed669" y="141.464588"/>
    </g>
   </g>
   <g id="PathCollection_2">
    <defs>
     <path d="M 0 3 
C 0.795609 3 1.55874 2.683901 2.12132 2.12132 
C 2.683901 1.55874 3 0.795609 3 0 
C 3 -0.795609 2.683901 -1.55874 2.12132 -2.12132 
C 1.55874 -2.683901 0.795609 -3 0 -3 
C -0.795609 -3 -1.55874 -2.683901 -2.12132 -2.12132 
C -2.683901 -1.55874 -3 -0.795609 -3 0 
C -3 0.795609 -2.683901 1.55874 -2.12132 2.12132 
C -1.55874 2.683901 -0.795609 3 0 3 
z
" id="m38f9b9b2ce" style="stroke:#ff7f0e;"/>
    </defs>
    <g clip-path="url(#p58fcc7fcec)">
     <use style="fill:#ff7f0e;stroke:#ff7f0e;" x="338.920578" xlink:href="#m38f9b9b2ce" y="80.884565"/>
     <use style="fill:#ff7f0e;stroke:#ff7f0e;" x="349.583695" xlink:href="#m38f9b9b2ce" y="63.803611"/>
     <use style="fill:#ff7f0e;stroke:#ff7f0e;" x="346.927437" xlink:href="#m38f9b9b2ce" y="75.36297"/>
     <use style="fill:#ff7f0e;stroke:#ff7f0e;" x="381.165756" xlink:href="#m38f9b9b2ce" y="90.385788"/>
     <use style="fill:#ff7f0e;stroke:#ff7f0e;" x="369.88564" xlink:href="#m38f9b9b2ce" y="96.159642"/>
     <use style="fill:#ff7f0e;stroke:#ff7f0e;" x="351.157427" xlink:href="#m38f9b9b2ce" y="34.951455"/>
     <use style="fill:#ff7f0e;stroke:#ff7f0e;" x="362.589845" xlink:href="#m38f9b9b2ce" y="80.486539"/>
     <use style="fill:#ff7f0e;stroke:#ff7f0e;" x="385.246184" xlink:href="#m38f9b9b2ce" y="55.36089"/>
     <use style="fill:#ff7f0e;stroke:#ff7f0e;" x="354.755557" xlink:href="#m38f9b9b2ce" y="63.796074"/>
     <use style="fill:#ff7f0e;stroke:#ff7f0e;" x="399.323971" xlink:href="#m38f9b9b2ce" y="68.053969"/>
     <use style="fill:#ff7f0e;stroke:#ff7f0e;" x="351.519031" xlink:href="#m38f9b9b2ce" y="31.443778"/>
     <use style="fill:#ff7f0e;stroke:#ff7f0e;" x="363.432933" xlink:href="#m38f9b9b2ce" y="85.894965"/>
     <use style="fill:#ff7f0e;stroke:#ff7f0e;" x="359.541069" xlink:href="#m38f9b9b2ce" y="78.702479"/>
     <use style="fill:#ff7f0e;stroke:#ff7f0e;" x="356.811406" xlink:href="#m38f9b9b2ce" y="80.945897"/>
     <use style="fill:#ff7f0e;stroke:#ff7f0e;" x="389.03292" xlink:href="#m38f9b9b2ce" y="102.005183"/>
     <use style="fill:#ff7f0e;stroke:#ff7f0e;" x="393.336524" xlink:href="#m38f9b9b2ce" y="74.382306"/>
     <use style="fill:#ff7f0e;stroke:#ff7f0e;" x="389.966647" xlink:href="#m38f9b9b2ce" y="57.729831"/>
     <use style="fill:#ff7f0e;stroke:#ff7f0e;" x="373.752002" xlink:href="#m38f9b9b2ce" y="70.649063"/>
     <use style="fill:#ff7f0e;stroke:#ff7f0e;" x="371.086951" xlink:href="#m38f9b9b2ce" y="78.063983"/>
     <use style="fill:#ff7f0e;stroke:#ff7f0e;" x="395.160912" xlink:href="#m38f9b9b2ce" y="54.343683"/>
     <use style="fill:#ff7f0e;stroke:#ff7f0e;" x="338.368633" xlink:href="#m38f9b9b2ce" y="106.039033"/>
     <use style="fill:#ff7f0e;stroke:#ff7f0e;" x="384.055205" xlink:href="#m38f9b9b2ce" y="97.324189"/>
     <use style="fill:#ff7f0e;stroke:#ff7f0e;" x="334.682014" xlink:href="#m38f9b9b2ce" y="80.240874"/>
     <use style="fill:#ff7f0e;stroke:#ff7f0e;" x="335.93304" xlink:href="#m38f9b9b2ce" y="86.34099"/>
     <use style="fill:#ff7f0e;stroke:#ff7f0e;" x="348.373003" xlink:href="#m38f9b9b2ce" y="73.220231"/>
     <use style="fill:#ff7f0e;stroke:#ff7f0e;" x="389.201064" xlink:href="#m38f9b9b2ce" y="92.255071"/>
     <use style="fill:#ff7f0e;stroke:#ff7f0e;" x="418.08544" xlink:href="#m38f9b9b2ce" y="86.461903"/>
     <use style="fill:#ff7f0e;stroke:#ff7f0e;" x="365.134318" xlink:href="#m38f9b9b2ce" y="63.723935"/>
     <use style="fill:#ff7f0e;stroke:#ff7f0e;" x="383.395842" xlink:href="#m38f9b9b2ce" y="71.951006"/>
     <use style="fill:#ff7f0e;stroke:#ff7f0e;" x="404.949848" xlink:href="#m38f9b9b2ce" y="49.72859"/>
     <use style="fill:#ff7f0e;stroke:#ff7f0e;" x="371.251695" xlink:href="#m38f9b9b2ce" y="72.503951"/>
     <use style="fill:#ff7f0e;stroke:#ff7f0e;" x="344.920932" xlink:href="#m38f9b9b2ce" y="64.082615"/>
     <use style="fill:#ff7f0e;stroke:#ff7f0e;" x="357.344129" xlink:href="#m38f9b9b2ce" y="83.000866"/>
     <use style="fill:#ff7f0e;stroke:#ff7f0e;" x="393.100741" xlink:href="#m38f9b9b2ce" y="83.693171"/>
     <use style="fill:#ff7f0e;stroke:#ff7f0e;" x="316.867708" xlink:href="#m38f9b9b2ce" y="78.99152"/>
     <use style="fill:#ff7f0e;stroke:#ff7f0e;" x="418.883718" xlink:href="#m38f9b9b2ce" y="70.582632"/>
     <use style="fill:#ff7f0e;stroke:#ff7f0e;" x="365.262168" xlink:href="#m38f9b9b2ce" y="36.118385"/>
     <use style="fill:#ff7f0e;stroke:#ff7f0e;" x="415.380808" xlink:href="#m38f9b9b2ce" y="71.325679"/>
     <use style="fill:#ff7f0e;stroke:#ff7f0e;" x="377.556228" xlink:href="#m38f9b9b2ce" y="71.510655"/>
     <use style="fill:#ff7f0e;stroke:#ff7f0e;" x="389.324085" xlink:href="#m38f9b9b2ce" y="91.006145"/>
     <use style="fill:#ff7f0e;stroke:#ff7f0e;" x="330.541318" xlink:href="#m38f9b9b2ce" y="46.760657"/>
     <use style="fill:#ff7f0e;stroke:#ff7f0e;" x="368.63584" xlink:href="#m38f9b9b2ce" y="89.486701"/>
     <use style="fill:#ff7f0e;stroke:#ff7f0e;" x="364.732214" xlink:href="#m38f9b9b2ce" y="99.408894"/>
     <use style="fill:#ff7f0e;stroke:#ff7f0e;" x="363.872056" xlink:href="#m38f9b9b2ce" y="68.853614"/>
     <use style="fill:#ff7f0e;stroke:#ff7f0e;" x="388.643468" xlink:href="#m38f9b9b2ce" y="74.930637"/>
     <use style="fill:#ff7f0e;stroke:#ff7f0e;" x="356.269595" xlink:href="#m38f9b9b2ce" y="69.810544"/>
     <use style="fill:#ff7f0e;stroke:#ff7f0e;" x="356.146923" xlink:href="#m38f9b9b2ce" y="65.773882"/>
     <use style="fill:#ff7f0e;stroke:#ff7f0e;" x="364.669003" xlink:href="#m38f9b9b2ce" y="77.020971"/>
     <use style="fill:#ff7f0e;stroke:#ff7f0e;" x="384.262644" xlink:href="#m38f9b9b2ce" y="58.919635"/>
     <use style="fill:#ff7f0e;stroke:#ff7f0e;" x="383.627723" xlink:href="#m38f9b9b2ce" y="66.259504"/>
     <use style="fill:#ff7f0e;stroke:#ff7f0e;" x="349.810419" xlink:href="#m38f9b9b2ce" y="65.810102"/>
     <use style="fill:#ff7f0e;stroke:#ff7f0e;" x="392.349388" xlink:href="#m38f9b9b2ce" y="87.207917"/>
     <use style="fill:#ff7f0e;stroke:#ff7f0e;" x="353.064202" xlink:href="#m38f9b9b2ce" y="77.998284"/>
     <use style="fill:#ff7f0e;stroke:#ff7f0e;" x="346.149026" xlink:href="#m38f9b9b2ce" y="68.099067"/>
     <use style="fill:#ff7f0e;stroke:#ff7f0e;" x="362.29728" xlink:href="#m38f9b9b2ce" y="93.501679"/>
     <use style="fill:#ff7f0e;stroke:#ff7f0e;" x="340.121483" xlink:href="#m38f9b9b2ce" y="94.105921"/>
     <use style="fill:#ff7f0e;stroke:#ff7f0e;" x="374.372901" xlink:href="#m38f9b9b2ce" y="92.055239"/>
     <use style="fill:#ff7f0e;stroke:#ff7f0e;" x="381.024363" xlink:href="#m38f9b9b2ce" y="68.898419"/>
     <use style="fill:#ff7f0e;stroke:#ff7f0e;" x="346.151093" xlink:href="#m38f9b9b2ce" y="65.016122"/>
     <use style="fill:#ff7f0e;stroke:#ff7f0e;" x="384.533515" xlink:href="#m38f9b9b2ce" y="69.352878"/>
     <use style="fill:#ff7f0e;stroke:#ff7f0e;" x="353.821013" xlink:href="#m38f9b9b2ce" y="79.537536"/>
     <use style="fill:#ff7f0e;stroke:#ff7f0e;" x="387.246303" xlink:href="#m38f9b9b2ce" y="65.319165"/>
     <use style="fill:#ff7f0e;stroke:#ff7f0e;" x="342.647795" xlink:href="#m38f9b9b2ce" y="77.631677"/>
     <use style="fill:#ff7f0e;stroke:#ff7f0e;" x="357.421155" xlink:href="#m38f9b9b2ce" y="77.960734"/>
     <use style="fill:#ff7f0e;stroke:#ff7f0e;" x="389.12172" xlink:href="#m38f9b9b2ce" y="70.504136"/>
     <use style="fill:#ff7f0e;stroke:#ff7f0e;" x="405.33116" xlink:href="#m38f9b9b2ce" y="112.328015"/>
     <use style="fill:#ff7f0e;stroke:#ff7f0e;" x="357.441546" xlink:href="#m38f9b9b2ce" y="98.178356"/>
     <use style="fill:#ff7f0e;stroke:#ff7f0e;" x="380.188447" xlink:href="#m38f9b9b2ce" y="61.166107"/>
     <use style="fill:#ff7f0e;stroke:#ff7f0e;" x="344.98607" xlink:href="#m38f9b9b2ce" y="72.667834"/>
     <use style="fill:#ff7f0e;stroke:#ff7f0e;" x="367.901994" xlink:href="#m38f9b9b2ce" y="93.796133"/>
     <use style="fill:#ff7f0e;stroke:#ff7f0e;" x="417.711154" xlink:href="#m38f9b9b2ce" y="71.930588"/>
     <use style="fill:#ff7f0e;stroke:#ff7f0e;" x="423.636931" xlink:href="#m38f9b9b2ce" y="76.232681"/>
     <use style="fill:#ff7f0e;stroke:#ff7f0e;" x="356.28808" xlink:href="#m38f9b9b2ce" y="64.393366"/>
     <use style="fill:#ff7f0e;stroke:#ff7f0e;" x="380.224796" xlink:href="#m38f9b9b2ce" y="84.092292"/>
     <use style="fill:#ff7f0e;stroke:#ff7f0e;" x="337.918303" xlink:href="#m38f9b9b2ce" y="71.438843"/>
     <use style="fill:#ff7f0e;stroke:#ff7f0e;" x="369.67453" xlink:href="#m38f9b9b2ce" y="59.683856"/>
     <use style="fill:#ff7f0e;stroke:#ff7f0e;" x="314.771975" xlink:href="#m38f9b9b2ce" y="79.192368"/>
     <use style="fill:#ff7f0e;stroke:#ff7f0e;" x="354.720065" xlink:href="#m38f9b9b2ce" y="56.608271"/>
     <use style="fill:#ff7f0e;stroke:#ff7f0e;" x="404.355826" xlink:href="#m38f9b9b2ce" y="47.467384"/>
     <use style="fill:#ff7f0e;stroke:#ff7f0e;" x="381.543209" xlink:href="#m38f9b9b2ce" y="63.779312"/>
     <use style="fill:#ff7f0e;stroke:#ff7f0e;" x="341.091132" xlink:href="#m38f9b9b2ce" y="85.045255"/>
     <use style="fill:#ff7f0e;stroke:#ff7f0e;" x="383.648811" xlink:href="#m38f9b9b2ce" y="79.935601"/>
     <use style="fill:#ff7f0e;stroke:#ff7f0e;" x="373.856751" xlink:href="#m38f9b9b2ce" y="93.606103"/>
     <use style="fill:#ff7f0e;stroke:#ff7f0e;" x="373.117402" xlink:href="#m38f9b9b2ce" y="63.482126"/>
     <use style="fill:#ff7f0e;stroke:#ff7f0e;" x="368.603171" xlink:href="#m38f9b9b2ce" y="64.39439"/>
     <use style="fill:#ff7f0e;stroke:#ff7f0e;" x="395.21574" xlink:href="#m38f9b9b2ce" y="101.424213"/>
     <use style="fill:#ff7f0e;stroke:#ff7f0e;" x="354.831715" xlink:href="#m38f9b9b2ce" y="47.712083"/>
     <use style="fill:#ff7f0e;stroke:#ff7f0e;" x="364.283132" xlink:href="#m38f9b9b2ce" y="87.227405"/>
     <use style="fill:#ff7f0e;stroke:#ff7f0e;" x="394.765602" xlink:href="#m38f9b9b2ce" y="71.30384"/>
     <use style="fill:#ff7f0e;stroke:#ff7f0e;" x="371.336477" xlink:href="#m38f9b9b2ce" y="93.041887"/>
     <use style="fill:#ff7f0e;stroke:#ff7f0e;" x="340.657147" xlink:href="#m38f9b9b2ce" y="70.499764"/>
     <use style="fill:#ff7f0e;stroke:#ff7f0e;" x="375.313104" xlink:href="#m38f9b9b2ce" y="65.58164"/>
     <use style="fill:#ff7f0e;stroke:#ff7f0e;" x="377.26376" xlink:href="#m38f9b9b2ce" y="93.182656"/>
     <use style="fill:#ff7f0e;stroke:#ff7f0e;" x="349.680549" xlink:href="#m38f9b9b2ce" y="102.61408"/>
     <use style="fill:#ff7f0e;stroke:#ff7f0e;" x="387.300642" xlink:href="#m38f9b9b2ce" y="51.287131"/>
     <use style="fill:#ff7f0e;stroke:#ff7f0e;" x="365.385052" xlink:href="#m38f9b9b2ce" y="77.775243"/>
     <use style="fill:#ff7f0e;stroke:#ff7f0e;" x="375.029909" xlink:href="#m38f9b9b2ce" y="99.345781"/>
     <use style="fill:#ff7f0e;stroke:#ff7f0e;" x="416.329727" xlink:href="#m38f9b9b2ce" y="73.413824"/>
     <use style="fill:#ff7f0e;stroke:#ff7f0e;" x="369.271526" xlink:href="#m38f9b9b2ce" y="78.688159"/>
     <use style="fill:#ff7f0e;stroke:#ff7f0e;" x="358.649972" xlink:href="#m38f9b9b2ce" y="89.365055"/>
    </g>
   </g>
   <g id="matplotlib.axis_1">
    <g id="xtick_1">
     <g id="line2d_1">
      <defs>
       <path d="M 0 0 
L 0 3.5 
" id="md869d33db8" style="stroke:#000000;stroke-width:0.8;"/>
      </defs>
      <g>
       <use style="stroke:#000000;stroke-width:0.8;" x="57.6" xlink:href="#md869d33db8" y="307.584"/>
      </g>
     </g>
     <g id="text_1">
      <!-- −4 -->
      <defs>
       <path d="M 10.59375 35.5 
L 73.1875 35.5 
L 73.1875 27.203125 
L 10.59375 27.203125 
z
" id="DejaVuSans-8722"/>
       <path d="M 37.796875 64.3125 
L 12.890625 25.390625 
L 37.796875 25.390625 
z
M 35.203125 72.90625 
L 47.609375 72.90625 
L 47.609375 25.390625 
L 58.015625 25.390625 
L 58.015625 17.1875 
L 47.609375 17.1875 
L 47.609375 0 
L 37.796875 0 
L 37.796875 17.1875 
L 4.890625 17.1875 
L 4.890625 26.703125 
z
" id="DejaVuSans-52"/>
      </defs>
      <g transform="translate(50.228906 322.182437)scale(0.1 -0.1)">
       <use xlink:href="#DejaVuSans-8722"/>
       <use x="83.789062" xlink:href="#DejaVuSans-52"/>
      </g>
     </g>
    </g>
    <g id="xtick_2">
     <g id="line2d_2">
      <g>
       <use style="stroke:#000000;stroke-width:0.8;" x="102.24" xlink:href="#md869d33db8" y="307.584"/>
      </g>
     </g>
     <g id="text_2">
      <!-- −3 -->
      <defs>
       <path d="M 40.578125 39.3125 
Q 47.65625 37.796875 51.625 33 
Q 55.609375 28.21875 55.609375 21.1875 
Q 55.609375 10.40625 48.1875 4.484375 
Q 40.765625 -1.421875 27.09375 -1.421875 
Q 22.515625 -1.421875 17.65625 -0.515625 
Q 12.796875 0.390625 7.625 2.203125 
L 7.625 11.71875 
Q 11.71875 9.328125 16.59375 8.109375 
Q 21.484375 6.890625 26.8125 6.890625 
Q 36.078125 6.890625 40.9375 10.546875 
Q 45.796875 14.203125 45.796875 21.1875 
Q 45.796875 27.640625 41.28125 31.265625 
Q 36.765625 34.90625 28.71875 34.90625 
L 20.21875 34.90625 
L 20.21875 43.015625 
L 29.109375 43.015625 
Q 36.375 43.015625 40.234375 45.921875 
Q 44.09375 48.828125 44.09375 54.296875 
Q 44.09375 59.90625 40.109375 62.90625 
Q 36.140625 65.921875 28.71875 65.921875 
Q 24.65625 65.921875 20.015625 65.03125 
Q 15.375 64.15625 9.8125 62.3125 
L 9.8125 71.09375 
Q 15.4375 72.65625 20.34375 73.4375 
Q 25.25 74.21875 29.59375 74.21875 
Q 40.828125 74.21875 47.359375 69.109375 
Q 53.90625 64.015625 53.90625 55.328125 
Q 53.90625 49.265625 50.4375 45.09375 
Q 46.96875 40.921875 40.578125 39.3125 
z
" id="DejaVuSans-51"/>
      </defs>
      <g transform="translate(94.868906 322.182437)scale(0.1 -0.1)">
       <use xlink:href="#DejaVuSans-8722"/>
       <use x="83.789062" xlink:href="#DejaVuSans-51"/>
      </g>
     </g>
    </g>
    <g id="xtick_3">
     <g id="line2d_3">
      <g>
       <use style="stroke:#000000;stroke-width:0.8;" x="146.88" xlink:href="#md869d33db8" y="307.584"/>
      </g>
     </g>
     <g id="text_3">
      <!-- −2 -->
      <defs>
       <path d="M 19.1875 8.296875 
L 53.609375 8.296875 
L 53.609375 0 
L 7.328125 0 
L 7.328125 8.296875 
Q 12.9375 14.109375 22.625 23.890625 
Q 32.328125 33.6875 34.8125 36.53125 
Q 39.546875 41.84375 41.421875 45.53125 
Q 43.3125 49.21875 43.3125 52.78125 
Q 43.3125 58.59375 39.234375 62.25 
Q 35.15625 65.921875 28.609375 65.921875 
Q 23.96875 65.921875 18.8125 64.3125 
Q 13.671875 62.703125 7.8125 59.421875 
L 7.8125 69.390625 
Q 13.765625 71.78125 18.9375 73 
Q 24.125 74.21875 28.421875 74.21875 
Q 39.75 74.21875 46.484375 68.546875 
Q 53.21875 62.890625 53.21875 53.421875 
Q 53.21875 48.921875 51.53125 44.890625 
Q 49.859375 40.875 45.40625 35.40625 
Q 44.1875 33.984375 37.640625 27.21875 
Q 31.109375 20.453125 19.1875 8.296875 
z
" id="DejaVuSans-50"/>
      </defs>
      <g transform="translate(139.508906 322.182437)scale(0.1 -0.1)">
       <use xlink:href="#DejaVuSans-8722"/>
       <use x="83.789062" xlink:href="#DejaVuSans-50"/>
      </g>
     </g>
    </g>
    <g id="xtick_4">
     <g id="line2d_4">
      <g>
       <use style="stroke:#000000;stroke-width:0.8;" x="191.52" xlink:href="#md869d33db8" y="307.584"/>
      </g>
     </g>
     <g id="text_4">
      <!-- −1 -->
      <defs>
       <path d="M 12.40625 8.296875 
L 28.515625 8.296875 
L 28.515625 63.921875 
L 10.984375 60.40625 
L 10.984375 69.390625 
L 28.421875 72.90625 
L 38.28125 72.90625 
L 38.28125 8.296875 
L 54.390625 8.296875 
L 54.390625 0 
L 12.40625 0 
z
" id="DejaVuSans-49"/>
      </defs>
      <g transform="translate(184.148906 322.182437)scale(0.1 -0.1)">
       <use xlink:href="#DejaVuSans-8722"/>
       <use x="83.789062" xlink:href="#DejaVuSans-49"/>
      </g>
     </g>
    </g>
    <g id="xtick_5">
     <g id="line2d_5">
      <g>
       <use style="stroke:#000000;stroke-width:0.8;" x="236.16" xlink:href="#md869d33db8" y="307.584"/>
      </g>
     </g>
     <g id="text_5">
      <!-- 0 -->
      <defs>
       <path d="M 31.78125 66.40625 
Q 24.171875 66.40625 20.328125 58.90625 
Q 16.5 51.421875 16.5 36.375 
Q 16.5 21.390625 20.328125 13.890625 
Q 24.171875 6.390625 31.78125 6.390625 
Q 39.453125 6.390625 43.28125 13.890625 
Q 47.125 21.390625 47.125 36.375 
Q 47.125 51.421875 43.28125 58.90625 
Q 39.453125 66.40625 31.78125 66.40625 
z
M 31.78125 74.21875 
Q 44.046875 74.21875 50.515625 64.515625 
Q 56.984375 54.828125 56.984375 36.375 
Q 56.984375 17.96875 50.515625 8.265625 
Q 44.046875 -1.421875 31.78125 -1.421875 
Q 19.53125 -1.421875 13.0625 8.265625 
Q 6.59375 17.96875 6.59375 36.375 
Q 6.59375 54.828125 13.0625 64.515625 
Q 19.53125 74.21875 31.78125 74.21875 
z
" id="DejaVuSans-48"/>
      </defs>
      <g transform="translate(232.97875 322.182437)scale(0.1 -0.1)">
       <use xlink:href="#DejaVuSans-48"/>
      </g>
     </g>
    </g>
    <g id="xtick_6">
     <g id="line2d_6">
      <g>
       <use style="stroke:#000000;stroke-width:0.8;" x="280.8" xlink:href="#md869d33db8" y="307.584"/>
      </g>
     </g>
     <g id="text_6">
      <!-- 1 -->
      <g transform="translate(277.61875 322.182437)scale(0.1 -0.1)">
       <use xlink:href="#DejaVuSans-49"/>
      </g>
     </g>
    </g>
    <g id="xtick_7">
     <g id="line2d_7">
      <g>
       <use style="stroke:#000000;stroke-width:0.8;" x="325.44" xlink:href="#md869d33db8" y="307.584"/>
      </g>
     </g>
     <g id="text_7">
      <!-- 2 -->
      <g transform="translate(322.25875 322.182437)scale(0.1 -0.1)">
       <use xlink:href="#DejaVuSans-50"/>
      </g>
     </g>
    </g>
    <g id="xtick_8">
     <g id="line2d_8">
      <g>
       <use style="stroke:#000000;stroke-width:0.8;" x="370.08" xlink:href="#md869d33db8" y="307.584"/>
      </g>
     </g>
     <g id="text_8">
      <!-- 3 -->
      <g transform="translate(366.89875 322.182437)scale(0.1 -0.1)">
       <use xlink:href="#DejaVuSans-51"/>
      </g>
     </g>
    </g>
    <g id="xtick_9">
     <g id="line2d_9">
      <g>
       <use style="stroke:#000000;stroke-width:0.8;" x="414.72" xlink:href="#md869d33db8" y="307.584"/>
      </g>
     </g>
     <g id="text_9">
      <!-- 4 -->
      <g transform="translate(411.53875 322.182437)scale(0.1 -0.1)">
       <use xlink:href="#DejaVuSans-52"/>
      </g>
     </g>
    </g>
   </g>
   <g id="matplotlib.axis_2">
    <g id="ytick_1">
     <g id="line2d_10">
      <defs>
       <path d="M 0 0 
L -3.5 0 
" id="m885f0d7f90" style="stroke:#000000;stroke-width:0.8;"/>
      </defs>
      <g>
       <use style="stroke:#000000;stroke-width:0.8;" x="57.6" xlink:href="#m885f0d7f90" y="307.584"/>
      </g>
     </g>
     <g id="text_10">
      <!-- −4 -->
      <g transform="translate(35.857813 311.383219)scale(0.1 -0.1)">
       <use xlink:href="#DejaVuSans-8722"/>
       <use x="83.789062" xlink:href="#DejaVuSans-52"/>
      </g>
     </g>
    </g>
    <g id="ytick_2">
     <g id="line2d_11">
      <g>
       <use style="stroke:#000000;stroke-width:0.8;" x="57.6" xlink:href="#m885f0d7f90" y="274.32"/>
      </g>
     </g>
     <g id="text_11">
      <!-- −3 -->
      <g transform="translate(35.857813 278.119219)scale(0.1 -0.1)">
       <use xlink:href="#DejaVuSans-8722"/>
       <use x="83.789062" xlink:href="#DejaVuSans-51"/>
      </g>
     </g>
    </g>
    <g id="ytick_3">
     <g id="line2d_12">
      <g>
       <use style="stroke:#000000;stroke-width:0.8;" x="57.6" xlink:href="#m885f0d7f90" y="241.056"/>
      </g>
     </g>
     <g id="text_12">
      <!-- −2 -->
      <g transform="translate(35.857813 244.855219)scale(0.1 -0.1)">
       <use xlink:href="#DejaVuSans-8722"/>
       <use x="83.789062" xlink:href="#DejaVuSans-50"/>
      </g>
     </g>
    </g>
    <g id="ytick_4">
     <g id="line2d_13">
      <g>
       <use style="stroke:#000000;stroke-width:0.8;" x="57.6" xlink:href="#m885f0d7f90" y="207.792"/>
      </g>
     </g>
     <g id="text_13">
      <!-- −1 -->
      <g transform="translate(35.857813 211.591219)scale(0.1 -0.1)">
       <use xlink:href="#DejaVuSans-8722"/>
       <use x="83.789062" xlink:href="#DejaVuSans-49"/>
      </g>
     </g>
    </g>
    <g id="ytick_5">
     <g id="line2d_14">
      <g>
       <use style="stroke:#000000;stroke-width:0.8;" x="57.6" xlink:href="#m885f0d7f90" y="174.528"/>
      </g>
     </g>
     <g id="text_14">
      <!-- 0 -->
      <g transform="translate(44.2375 178.327219)scale(0.1 -0.1)">
       <use xlink:href="#DejaVuSans-48"/>
      </g>
     </g>
    </g>
    <g id="ytick_6">
     <g id="line2d_15">
      <g>
       <use style="stroke:#000000;stroke-width:0.8;" x="57.6" xlink:href="#m885f0d7f90" y="141.264"/>
      </g>
     </g>
     <g id="text_15">
      <!-- 1 -->
      <g transform="translate(44.2375 145.063219)scale(0.1 -0.1)">
       <use xlink:href="#DejaVuSans-49"/>
      </g>
     </g>
    </g>
    <g id="ytick_7">
     <g id="line2d_16">
      <g>
       <use style="stroke:#000000;stroke-width:0.8;" x="57.6" xlink:href="#m885f0d7f90" y="108"/>
      </g>
     </g>
     <g id="text_16">
      <!-- 2 -->
      <g transform="translate(44.2375 111.799219)scale(0.1 -0.1)">
       <use xlink:href="#DejaVuSans-50"/>
      </g>
     </g>
    </g>
    <g id="ytick_8">
     <g id="line2d_17">
      <g>
       <use style="stroke:#000000;stroke-width:0.8;" x="57.6" xlink:href="#m885f0d7f90" y="74.736"/>
      </g>
     </g>
     <g id="text_17">
      <!-- 3 -->
      <g transform="translate(44.2375 78.535219)scale(0.1 -0.1)">
       <use xlink:href="#DejaVuSans-51"/>
      </g>
     </g>
    </g>
    <g id="ytick_9">
     <g id="line2d_18">
      <g>
       <use style="stroke:#000000;stroke-width:0.8;" x="57.6" xlink:href="#m885f0d7f90" y="41.472"/>
      </g>
     </g>
     <g id="text_18">
      <!-- 4 -->
      <g transform="translate(44.2375 45.271219)scale(0.1 -0.1)">
       <use xlink:href="#DejaVuSans-52"/>
      </g>
     </g>
    </g>
   </g>
   <g id="line2d_19">
    <path clip-path="url(#p58fcc7fcec)" d="M 191.52 165.085277 
L 193.342041 166.433946 
L 195.164082 167.782616 
L 196.986122 169.131285 
L 198.808163 170.479954 
L 200.630204 171.828624 
L 202.452245 173.177293 
L 204.274286 174.525963 
L 206.096327 175.874632 
L 207.918367 177.223301 
L 209.740408 178.571971 
L 211.562449 179.92064 
L 213.38449 181.26931 
L 215.206531 182.617979 
L 217.028571 183.966648 
L 218.850612 185.315318 
L 220.672653 186.663987 
L 222.494694 188.012657 
L 224.316735 189.361326 
L 226.138776 190.709995 
L 227.960816 192.058665 
L 229.782857 193.407334 
L 231.604898 194.756004 
L 233.426939 196.104673 
L 235.24898 197.453343 
L 237.07102 198.802012 
L 238.893061 200.150681 
L 240.715102 201.499351 
L 242.537143 202.84802 
L 244.359184 204.19669 
L 246.181224 205.545359 
L 248.003265 206.894028 
L 249.825306 208.242698 
L 251.647347 209.591367 
L 253.469388 210.940037 
L 255.291429 212.288706 
L 257.113469 213.637375 
L 258.93551 214.986045 
L 260.757551 216.334714 
L 262.579592 217.683384 
L 264.401633 219.032053 
L 266.223673 220.380723 
L 268.045714 221.729392 
L 269.867755 223.078061 
L 271.689796 224.426731 
L 273.511837 225.7754 
L 275.333878 227.12407 
L 277.155918 228.472739 
L 278.977959 229.821408 
L 280.8 231.170078 
" style="fill:none;stroke:#1f77b4;stroke-linecap:square;stroke-width:1.5;"/>
   </g>
   <g id="patch_3">
    <path d="M 57.6 307.584 
L 57.6 41.472 
" style="fill:none;stroke:#000000;stroke-linecap:square;stroke-linejoin:miter;stroke-width:0.8;"/>
   </g>
   <g id="patch_4">
    <path d="M 414.72 307.584 
L 414.72 41.472 
" style="fill:none;stroke:#000000;stroke-linecap:square;stroke-linejoin:miter;stroke-width:0.8;"/>
   </g>
   <g id="patch_5">
    <path d="M 57.6 307.584 
L 414.72 307.584 
" style="fill:none;stroke:#000000;stroke-linecap:square;stroke-linejoin:miter;stroke-width:0.8;"/>
   </g>
   <g id="patch_6">
    <path d="M 57.6 41.472 
L 414.72 41.472 
" style="fill:none;stroke:#000000;stroke-linecap:square;stroke-linejoin:miter;stroke-width:0.8;"/>
   </g>
   <g id="text_19">
    <!-- Using Delta Rule without bias term -->
    <defs>
     <path d="M 8.6875 72.90625 
L 18.609375 72.90625 
L 18.609375 28.609375 
Q 18.609375 16.890625 22.84375 11.734375 
Q 27.09375 6.59375 36.625 6.59375 
Q 46.09375 6.59375 50.34375 11.734375 
Q 54.59375 16.890625 54.59375 28.609375 
L 54.59375 72.90625 
L 64.5 72.90625 
L 64.5 27.390625 
Q 64.5 13.140625 57.4375 5.859375 
Q 50.390625 -1.421875 36.625 -1.421875 
Q 22.796875 -1.421875 15.734375 5.859375 
Q 8.6875 13.140625 8.6875 27.390625 
z
" id="DejaVuSans-85"/>
     <path d="M 44.28125 53.078125 
L 44.28125 44.578125 
Q 40.484375 46.53125 36.375 47.5 
Q 32.28125 48.484375 27.875 48.484375 
Q 21.1875 48.484375 17.84375 46.4375 
Q 14.5 44.390625 14.5 40.28125 
Q 14.5 37.15625 16.890625 35.375 
Q 19.28125 33.59375 26.515625 31.984375 
L 29.59375 31.296875 
Q 39.15625 29.25 43.1875 25.515625 
Q 47.21875 21.78125 47.21875 15.09375 
Q 47.21875 7.46875 41.1875 3.015625 
Q 35.15625 -1.421875 24.609375 -1.421875 
Q 20.21875 -1.421875 15.453125 -0.5625 
Q 10.6875 0.296875 5.421875 2 
L 5.421875 11.28125 
Q 10.40625 8.6875 15.234375 7.390625 
Q 20.0625 6.109375 24.8125 6.109375 
Q 31.15625 6.109375 34.5625 8.28125 
Q 37.984375 10.453125 37.984375 14.40625 
Q 37.984375 18.0625 35.515625 20.015625 
Q 33.0625 21.96875 24.703125 23.78125 
L 21.578125 24.515625 
Q 13.234375 26.265625 9.515625 29.90625 
Q 5.8125 33.546875 5.8125 39.890625 
Q 5.8125 47.609375 11.28125 51.796875 
Q 16.75 56 26.8125 56 
Q 31.78125 56 36.171875 55.265625 
Q 40.578125 54.546875 44.28125 53.078125 
z
" id="DejaVuSans-115"/>
     <path d="M 9.421875 54.6875 
L 18.40625 54.6875 
L 18.40625 0 
L 9.421875 0 
z
M 9.421875 75.984375 
L 18.40625 75.984375 
L 18.40625 64.59375 
L 9.421875 64.59375 
z
" id="DejaVuSans-105"/>
     <path d="M 54.890625 33.015625 
L 54.890625 0 
L 45.90625 0 
L 45.90625 32.71875 
Q 45.90625 40.484375 42.875 44.328125 
Q 39.84375 48.1875 33.796875 48.1875 
Q 26.515625 48.1875 22.3125 43.546875 
Q 18.109375 38.921875 18.109375 30.90625 
L 18.109375 0 
L 9.078125 0 
L 9.078125 54.6875 
L 18.109375 54.6875 
L 18.109375 46.1875 
Q 21.34375 51.125 25.703125 53.5625 
Q 30.078125 56 35.796875 56 
Q 45.21875 56 50.046875 50.171875 
Q 54.890625 44.34375 54.890625 33.015625 
z
" id="DejaVuSans-110"/>
     <path d="M 45.40625 27.984375 
Q 45.40625 37.75 41.375 43.109375 
Q 37.359375 48.484375 30.078125 48.484375 
Q 22.859375 48.484375 18.828125 43.109375 
Q 14.796875 37.75 14.796875 27.984375 
Q 14.796875 18.265625 18.828125 12.890625 
Q 22.859375 7.515625 30.078125 7.515625 
Q 37.359375 7.515625 41.375 12.890625 
Q 45.40625 18.265625 45.40625 27.984375 
z
M 54.390625 6.78125 
Q 54.390625 -7.171875 48.1875 -13.984375 
Q 42 -20.796875 29.203125 -20.796875 
Q 24.46875 -20.796875 20.265625 -20.09375 
Q 16.0625 -19.390625 12.109375 -17.921875 
L 12.109375 -9.1875 
Q 16.0625 -11.328125 19.921875 -12.34375 
Q 23.78125 -13.375 27.78125 -13.375 
Q 36.625 -13.375 41.015625 -8.765625 
Q 45.40625 -4.15625 45.40625 5.171875 
L 45.40625 9.625 
Q 42.625 4.78125 38.28125 2.390625 
Q 33.9375 0 27.875 0 
Q 17.828125 0 11.671875 7.65625 
Q 5.515625 15.328125 5.515625 27.984375 
Q 5.515625 40.671875 11.671875 48.328125 
Q 17.828125 56 27.875 56 
Q 33.9375 56 38.28125 53.609375 
Q 42.625 51.21875 45.40625 46.390625 
L 45.40625 54.6875 
L 54.390625 54.6875 
z
" id="DejaVuSans-103"/>
     <path id="DejaVuSans-32"/>
     <path d="M 19.671875 64.796875 
L 19.671875 8.109375 
L 31.59375 8.109375 
Q 46.6875 8.109375 53.6875 14.9375 
Q 60.6875 21.78125 60.6875 36.53125 
Q 60.6875 51.171875 53.6875 57.984375 
Q 46.6875 64.796875 31.59375 64.796875 
z
M 9.8125 72.90625 
L 30.078125 72.90625 
Q 51.265625 72.90625 61.171875 64.09375 
Q 71.09375 55.28125 71.09375 36.53125 
Q 71.09375 17.671875 61.125 8.828125 
Q 51.171875 0 30.078125 0 
L 9.8125 0 
z
" id="DejaVuSans-68"/>
     <path d="M 56.203125 29.59375 
L 56.203125 25.203125 
L 14.890625 25.203125 
Q 15.484375 15.921875 20.484375 11.0625 
Q 25.484375 6.203125 34.421875 6.203125 
Q 39.59375 6.203125 44.453125 7.46875 
Q 49.3125 8.734375 54.109375 11.28125 
L 54.109375 2.78125 
Q 49.265625 0.734375 44.1875 -0.34375 
Q 39.109375 -1.421875 33.890625 -1.421875 
Q 20.796875 -1.421875 13.15625 6.1875 
Q 5.515625 13.8125 5.515625 26.8125 
Q 5.515625 40.234375 12.765625 48.109375 
Q 20.015625 56 32.328125 56 
Q 43.359375 56 49.78125 48.890625 
Q 56.203125 41.796875 56.203125 29.59375 
z
M 47.21875 32.234375 
Q 47.125 39.59375 43.09375 43.984375 
Q 39.0625 48.390625 32.421875 48.390625 
Q 24.90625 48.390625 20.390625 44.140625 
Q 15.875 39.890625 15.1875 32.171875 
z
" id="DejaVuSans-101"/>
     <path d="M 9.421875 75.984375 
L 18.40625 75.984375 
L 18.40625 0 
L 9.421875 0 
z
" id="DejaVuSans-108"/>
     <path d="M 18.3125 70.21875 
L 18.3125 54.6875 
L 36.8125 54.6875 
L 36.8125 47.703125 
L 18.3125 47.703125 
L 18.3125 18.015625 
Q 18.3125 11.328125 20.140625 9.421875 
Q 21.96875 7.515625 27.59375 7.515625 
L 36.8125 7.515625 
L 36.8125 0 
L 27.59375 0 
Q 17.1875 0 13.234375 3.875 
Q 9.28125 7.765625 9.28125 18.015625 
L 9.28125 47.703125 
L 2.6875 47.703125 
L 2.6875 54.6875 
L 9.28125 54.6875 
L 9.28125 70.21875 
z
" id="DejaVuSans-116"/>
     <path d="M 34.28125 27.484375 
Q 23.390625 27.484375 19.1875 25 
Q 14.984375 22.515625 14.984375 16.5 
Q 14.984375 11.71875 18.140625 8.90625 
Q 21.296875 6.109375 26.703125 6.109375 
Q 34.1875 6.109375 38.703125 11.40625 
Q 43.21875 16.703125 43.21875 25.484375 
L 43.21875 27.484375 
z
M 52.203125 31.203125 
L 52.203125 0 
L 43.21875 0 
L 43.21875 8.296875 
Q 40.140625 3.328125 35.546875 0.953125 
Q 30.953125 -1.421875 24.3125 -1.421875 
Q 15.921875 -1.421875 10.953125 3.296875 
Q 6 8.015625 6 15.921875 
Q 6 25.140625 12.171875 29.828125 
Q 18.359375 34.515625 30.609375 34.515625 
L 43.21875 34.515625 
L 43.21875 35.40625 
Q 43.21875 41.609375 39.140625 45 
Q 35.0625 48.390625 27.6875 48.390625 
Q 23 48.390625 18.546875 47.265625 
Q 14.109375 46.140625 10.015625 43.890625 
L 10.015625 52.203125 
Q 14.9375 54.109375 19.578125 55.046875 
Q 24.21875 56 28.609375 56 
Q 40.484375 56 46.34375 49.84375 
Q 52.203125 43.703125 52.203125 31.203125 
z
" id="DejaVuSans-97"/>
     <path d="M 44.390625 34.1875 
Q 47.5625 33.109375 50.5625 29.59375 
Q 53.5625 26.078125 56.59375 19.921875 
L 66.609375 0 
L 56 0 
L 46.6875 18.703125 
Q 43.0625 26.03125 39.671875 28.421875 
Q 36.28125 30.8125 30.421875 30.8125 
L 19.671875 30.8125 
L 19.671875 0 
L 9.8125 0 
L 9.8125 72.90625 
L 32.078125 72.90625 
Q 44.578125 72.90625 50.734375 67.671875 
Q 56.890625 62.453125 56.890625 51.90625 
Q 56.890625 45.015625 53.6875 40.46875 
Q 50.484375 35.9375 44.390625 34.1875 
z
M 19.671875 64.796875 
L 19.671875 38.921875 
L 32.078125 38.921875 
Q 39.203125 38.921875 42.84375 42.21875 
Q 46.484375 45.515625 46.484375 51.90625 
Q 46.484375 58.296875 42.84375 61.546875 
Q 39.203125 64.796875 32.078125 64.796875 
z
" id="DejaVuSans-82"/>
     <path d="M 8.5 21.578125 
L 8.5 54.6875 
L 17.484375 54.6875 
L 17.484375 21.921875 
Q 17.484375 14.15625 20.5 10.265625 
Q 23.53125 6.390625 29.59375 6.390625 
Q 36.859375 6.390625 41.078125 11.03125 
Q 45.3125 15.671875 45.3125 23.6875 
L 45.3125 54.6875 
L 54.296875 54.6875 
L 54.296875 0 
L 45.3125 0 
L 45.3125 8.40625 
Q 42.046875 3.421875 37.71875 1 
Q 33.40625 -1.421875 27.6875 -1.421875 
Q 18.265625 -1.421875 13.375 4.4375 
Q 8.5 10.296875 8.5 21.578125 
z
M 31.109375 56 
z
" id="DejaVuSans-117"/>
     <path d="M 4.203125 54.6875 
L 13.1875 54.6875 
L 24.421875 12.015625 
L 35.59375 54.6875 
L 46.1875 54.6875 
L 57.421875 12.015625 
L 68.609375 54.6875 
L 77.59375 54.6875 
L 63.28125 0 
L 52.6875 0 
L 40.921875 44.828125 
L 29.109375 0 
L 18.5 0 
z
" id="DejaVuSans-119"/>
     <path d="M 54.890625 33.015625 
L 54.890625 0 
L 45.90625 0 
L 45.90625 32.71875 
Q 45.90625 40.484375 42.875 44.328125 
Q 39.84375 48.1875 33.796875 48.1875 
Q 26.515625 48.1875 22.3125 43.546875 
Q 18.109375 38.921875 18.109375 30.90625 
L 18.109375 0 
L 9.078125 0 
L 9.078125 75.984375 
L 18.109375 75.984375 
L 18.109375 46.1875 
Q 21.34375 51.125 25.703125 53.5625 
Q 30.078125 56 35.796875 56 
Q 45.21875 56 50.046875 50.171875 
Q 54.890625 44.34375 54.890625 33.015625 
z
" id="DejaVuSans-104"/>
     <path d="M 30.609375 48.390625 
Q 23.390625 48.390625 19.1875 42.75 
Q 14.984375 37.109375 14.984375 27.296875 
Q 14.984375 17.484375 19.15625 11.84375 
Q 23.34375 6.203125 30.609375 6.203125 
Q 37.796875 6.203125 41.984375 11.859375 
Q 46.1875 17.53125 46.1875 27.296875 
Q 46.1875 37.015625 41.984375 42.703125 
Q 37.796875 48.390625 30.609375 48.390625 
z
M 30.609375 56 
Q 42.328125 56 49.015625 48.375 
Q 55.71875 40.765625 55.71875 27.296875 
Q 55.71875 13.875 49.015625 6.21875 
Q 42.328125 -1.421875 30.609375 -1.421875 
Q 18.84375 -1.421875 12.171875 6.21875 
Q 5.515625 13.875 5.515625 27.296875 
Q 5.515625 40.765625 12.171875 48.375 
Q 18.84375 56 30.609375 56 
z
" id="DejaVuSans-111"/>
     <path d="M 48.6875 27.296875 
Q 48.6875 37.203125 44.609375 42.84375 
Q 40.53125 48.484375 33.40625 48.484375 
Q 26.265625 48.484375 22.1875 42.84375 
Q 18.109375 37.203125 18.109375 27.296875 
Q 18.109375 17.390625 22.1875 11.75 
Q 26.265625 6.109375 33.40625 6.109375 
Q 40.53125 6.109375 44.609375 11.75 
Q 48.6875 17.390625 48.6875 27.296875 
z
M 18.109375 46.390625 
Q 20.953125 51.265625 25.265625 53.625 
Q 29.59375 56 35.59375 56 
Q 45.5625 56 51.78125 48.09375 
Q 58.015625 40.1875 58.015625 27.296875 
Q 58.015625 14.40625 51.78125 6.484375 
Q 45.5625 -1.421875 35.59375 -1.421875 
Q 29.59375 -1.421875 25.265625 0.953125 
Q 20.953125 3.328125 18.109375 8.203125 
L 18.109375 0 
L 9.078125 0 
L 9.078125 75.984375 
L 18.109375 75.984375 
z
" id="DejaVuSans-98"/>
     <path d="M 41.109375 46.296875 
Q 39.59375 47.171875 37.8125 47.578125 
Q 36.03125 48 33.890625 48 
Q 26.265625 48 22.1875 43.046875 
Q 18.109375 38.09375 18.109375 28.8125 
L 18.109375 0 
L 9.078125 0 
L 9.078125 54.6875 
L 18.109375 54.6875 
L 18.109375 46.1875 
Q 20.953125 51.171875 25.484375 53.578125 
Q 30.03125 56 36.53125 56 
Q 37.453125 56 38.578125 55.875 
Q 39.703125 55.765625 41.0625 55.515625 
z
" id="DejaVuSans-114"/>
     <path d="M 52 44.1875 
Q 55.375 50.25 60.0625 53.125 
Q 64.75 56 71.09375 56 
Q 79.640625 56 84.28125 50.015625 
Q 88.921875 44.046875 88.921875 33.015625 
L 88.921875 0 
L 79.890625 0 
L 79.890625 32.71875 
Q 79.890625 40.578125 77.09375 44.375 
Q 74.3125 48.1875 68.609375 48.1875 
Q 61.625 48.1875 57.5625 43.546875 
Q 53.515625 38.921875 53.515625 30.90625 
L 53.515625 0 
L 44.484375 0 
L 44.484375 32.71875 
Q 44.484375 40.625 41.703125 44.40625 
Q 38.921875 48.1875 33.109375 48.1875 
Q 26.21875 48.1875 22.15625 43.53125 
Q 18.109375 38.875 18.109375 30.90625 
L 18.109375 0 
L 9.078125 0 
L 9.078125 54.6875 
L 18.109375 54.6875 
L 18.109375 46.1875 
Q 21.1875 51.21875 25.484375 53.609375 
Q 29.78125 56 35.6875 56 
Q 41.65625 56 45.828125 52.96875 
Q 50 49.953125 52 44.1875 
z
" id="DejaVuSans-109"/>
    </defs>
    <g transform="translate(131.309062 35.472)scale(0.12 -0.12)">
     <use xlink:href="#DejaVuSans-85"/>
     <use x="73.193359" xlink:href="#DejaVuSans-115"/>
     <use x="125.292969" xlink:href="#DejaVuSans-105"/>
     <use x="153.076172" xlink:href="#DejaVuSans-110"/>
     <use x="216.455078" xlink:href="#DejaVuSans-103"/>
     <use x="279.931641" xlink:href="#DejaVuSans-32"/>
     <use x="311.71875" xlink:href="#DejaVuSans-68"/>
     <use x="388.720703" xlink:href="#DejaVuSans-101"/>
     <use x="450.244141" xlink:href="#DejaVuSans-108"/>
     <use x="478.027344" xlink:href="#DejaVuSans-116"/>
     <use x="517.236328" xlink:href="#DejaVuSans-97"/>
     <use x="578.515625" xlink:href="#DejaVuSans-32"/>
     <use x="610.302734" xlink:href="#DejaVuSans-82"/>
     <use x="679.722656" xlink:href="#DejaVuSans-117"/>
     <use x="743.101562" xlink:href="#DejaVuSans-108"/>
     <use x="770.884766" xlink:href="#DejaVuSans-101"/>
     <use x="832.408203" xlink:href="#DejaVuSans-32"/>
     <use x="864.195312" xlink:href="#DejaVuSans-119"/>
     <use x="945.982422" xlink:href="#DejaVuSans-105"/>
     <use x="973.765625" xlink:href="#DejaVuSans-116"/>
     <use x="1012.974609" xlink:href="#DejaVuSans-104"/>
     <use x="1076.353516" xlink:href="#DejaVuSans-111"/>
     <use x="1137.535156" xlink:href="#DejaVuSans-117"/>
     <use x="1200.914062" xlink:href="#DejaVuSans-116"/>
     <use x="1240.123047" xlink:href="#DejaVuSans-32"/>
     <use x="1271.910156" xlink:href="#DejaVuSans-98"/>
     <use x="1335.386719" xlink:href="#DejaVuSans-105"/>
     <use x="1363.169922" xlink:href="#DejaVuSans-97"/>
     <use x="1424.449219" xlink:href="#DejaVuSans-115"/>
     <use x="1476.548828" xlink:href="#DejaVuSans-32"/>
     <use x="1508.335938" xlink:href="#DejaVuSans-116"/>
     <use x="1547.544922" xlink:href="#DejaVuSans-101"/>
     <use x="1609.068359" xlink:href="#DejaVuSans-114"/>
     <use x="1650.166016" xlink:href="#DejaVuSans-109"/>
    </g>
   </g>
   <g id="legend_1">
    <g id="patch_7">
     <path d="M 64.6 64.42825 
L 155.160937 64.42825 
Q 157.160937 64.42825 157.160937 62.42825 
L 157.160937 48.472 
Q 157.160937 46.472 155.160937 46.472 
L 64.6 46.472 
Q 62.6 46.472 62.6 48.472 
L 62.6 62.42825 
Q 62.6 64.42825 64.6 64.42825 
z
" style="fill:#ffffff;opacity:0.8;stroke:#cccccc;stroke-linejoin:miter;"/>
    </g>
    <g id="line2d_20">
     <path d="M 66.6 54.570437 
L 86.6 54.570437 
" style="fill:none;stroke:#1f77b4;stroke-linecap:square;stroke-width:1.5;"/>
    </g>
    <g id="line2d_21"/>
    <g id="text_20">
     <!-- delta_batch -->
     <defs>
      <path d="M 45.40625 46.390625 
L 45.40625 75.984375 
L 54.390625 75.984375 
L 54.390625 0 
L 45.40625 0 
L 45.40625 8.203125 
Q 42.578125 3.328125 38.25 0.953125 
Q 33.9375 -1.421875 27.875 -1.421875 
Q 17.96875 -1.421875 11.734375 6.484375 
Q 5.515625 14.40625 5.515625 27.296875 
Q 5.515625 40.1875 11.734375 48.09375 
Q 17.96875 56 27.875 56 
Q 33.9375 56 38.25 53.625 
Q 42.578125 51.265625 45.40625 46.390625 
z
M 14.796875 27.296875 
Q 14.796875 17.390625 18.875 11.75 
Q 22.953125 6.109375 30.078125 6.109375 
Q 37.203125 6.109375 41.296875 11.75 
Q 45.40625 17.390625 45.40625 27.296875 
Q 45.40625 37.203125 41.296875 42.84375 
Q 37.203125 48.484375 30.078125 48.484375 
Q 22.953125 48.484375 18.875 42.84375 
Q 14.796875 37.203125 14.796875 27.296875 
z
" id="DejaVuSans-100"/>
      <path d="M 50.984375 -16.609375 
L 50.984375 -23.578125 
L -0.984375 -23.578125 
L -0.984375 -16.609375 
z
" id="DejaVuSans-95"/>
      <path d="M 48.78125 52.59375 
L 48.78125 44.1875 
Q 44.96875 46.296875 41.140625 47.34375 
Q 37.3125 48.390625 33.40625 48.390625 
Q 24.65625 48.390625 19.8125 42.84375 
Q 14.984375 37.3125 14.984375 27.296875 
Q 14.984375 17.28125 19.8125 11.734375 
Q 24.65625 6.203125 33.40625 6.203125 
Q 37.3125 6.203125 41.140625 7.25 
Q 44.96875 8.296875 48.78125 10.40625 
L 48.78125 2.09375 
Q 45.015625 0.34375 40.984375 -0.53125 
Q 36.96875 -1.421875 32.421875 -1.421875 
Q 20.0625 -1.421875 12.78125 6.34375 
Q 5.515625 14.109375 5.515625 27.296875 
Q 5.515625 40.671875 12.859375 48.328125 
Q 20.21875 56 33.015625 56 
Q 37.15625 56 41.109375 55.140625 
Q 45.0625 54.296875 48.78125 52.59375 
z
" id="DejaVuSans-99"/>
     </defs>
     <g transform="translate(94.6 58.070437)scale(0.1 -0.1)">
      <use xlink:href="#DejaVuSans-100"/>
      <use x="63.476562" xlink:href="#DejaVuSans-101"/>
      <use x="125" xlink:href="#DejaVuSans-108"/>
      <use x="152.783203" xlink:href="#DejaVuSans-116"/>
      <use x="191.992188" xlink:href="#DejaVuSans-97"/>
      <use x="253.271484" xlink:href="#DejaVuSans-95"/>
      <use x="303.271484" xlink:href="#DejaVuSans-98"/>
      <use x="366.748047" xlink:href="#DejaVuSans-97"/>
      <use x="428.027344" xlink:href="#DejaVuSans-116"/>
      <use x="467.236328" xlink:href="#DejaVuSans-99"/>
      <use x="522.216797" xlink:href="#DejaVuSans-104"/>
     </g>
    </g>
   </g>
  </g>
 </g>
 <defs>
  <clipPath id="p58fcc7fcec">
   <rect height="266.112" width="357.12" x="57.6" y="41.472"/>
  </clipPath>
 </defs>
</svg>
