<?xml version="1.0" encoding="utf-8" standalone="no"?>
<!DOCTYPE svg PUBLIC "-//W3C//DTD SVG 1.1//EN"
  "http://www.w3.org/Graphics/SVG/1.1/DTD/svg11.dtd">
<!-- Created with matplotlib (https://matplotlib.org/) -->
<svg height="345.6pt" version="1.1" viewBox="0 0 460.8 345.6" width="460.8pt" xmlns="http://www.w3.org/2000/svg" xmlns:xlink="http://www.w3.org/1999/xlink">
 <defs>
  <style type="text/css">
*{stroke-linecap:butt;stroke-linejoin:round;}
  </style>
 </defs>
 <g id="figure_1">
  <g id="patch_1">
   <path d="M 0 345.6 
L 460.8 345.6 
L 460.8 0 
L 0 0 
z
" style="fill:#ffffff;"/>
  </g>
  <g id="axes_1">
   <g id="patch_2">
    <path d="M 57.6 307.584 
L 414.72 307.584 
L 414.72 41.472 
L 57.6 41.472 
z
" style="fill:#ffffff;"/>
   </g>
   <g id="PathCollection_1">
    <defs>
     <path d="M 0 3 
C 0.795609 3 1.55874 2.683901 2.12132 2.12132 
C 2.683901 1.55874 3 0.795609 3 0 
C 3 -0.795609 2.683901 -1.55874 2.12132 -2.12132 
C 1.55874 -2.683901 0.795609 -3 0 -3 
C -0.795609 -3 -1.55874 -2.683901 -2.12132 -2.12132 
C -2.683901 -1.55874 -3 -0.795609 -3 0 
C -3 0.795609 -2.683901 1.55874 -2.12132 2.12132 
C -1.55874 2.683901 -0.795609 3 0 3 
z
" id="m73061019a5" style="stroke:#1f77b4;"/>
    </defs>
    <g clip-path="url(#pac8d0aed40)">
     <use style="fill:#1f77b4;stroke:#1f77b4;" x="151.963422" xlink:href="#m73061019a5" y="222.128996"/>
     <use style="fill:#1f77b4;stroke:#1f77b4;" x="195.197218" xlink:href="#m73061019a5" y="224.400378"/>
     <use style="fill:#1f77b4;stroke:#1f77b4;" x="123.363389" xlink:href="#m73061019a5" y="211.810303"/>
     <use style="fill:#1f77b4;stroke:#1f77b4;" x="160.31578" xlink:href="#m73061019a5" y="213.10979"/>
     <use style="fill:#1f77b4;stroke:#1f77b4;" x="222.083188" xlink:href="#m73061019a5" y="233.887633"/>
     <use style="fill:#1f77b4;stroke:#1f77b4;" x="172.030479" xlink:href="#m73061019a5" y="220.059286"/>
     <use style="fill:#1f77b4;stroke:#1f77b4;" x="126.186948" xlink:href="#m73061019a5" y="227.475987"/>
     <use style="fill:#1f77b4;stroke:#1f77b4;" x="190.117209" xlink:href="#m73061019a5" y="193.514983"/>
     <use style="fill:#1f77b4;stroke:#1f77b4;" x="204.628473" xlink:href="#m73061019a5" y="181.584359"/>
     <use style="fill:#1f77b4;stroke:#1f77b4;" x="193.447183" xlink:href="#m73061019a5" y="225.244032"/>
     <use style="fill:#1f77b4;stroke:#1f77b4;" x="139.585933" xlink:href="#m73061019a5" y="198.788014"/>
     <use style="fill:#1f77b4;stroke:#1f77b4;" x="135.94091" xlink:href="#m73061019a5" y="231.271394"/>
     <use style="fill:#1f77b4;stroke:#1f77b4;" x="172.910929" xlink:href="#m73061019a5" y="278.390017"/>
     <use style="fill:#1f77b4;stroke:#1f77b4;" x="193.891758" xlink:href="#m73061019a5" y="220.96417"/>
     <use style="fill:#1f77b4;stroke:#1f77b4;" x="223.960466" xlink:href="#m73061019a5" y="237.153984"/>
     <use style="fill:#1f77b4;stroke:#1f77b4;" x="189.153253" xlink:href="#m73061019a5" y="140.900052"/>
     <use style="fill:#1f77b4;stroke:#1f77b4;" x="250.831073" xlink:href="#m73061019a5" y="231.207143"/>
     <use style="fill:#1f77b4;stroke:#1f77b4;" x="207.763873" xlink:href="#m73061019a5" y="224.619637"/>
     <use style="fill:#1f77b4;stroke:#1f77b4;" x="141.237487" xlink:href="#m73061019a5" y="196.548278"/>
     <use style="fill:#1f77b4;stroke:#1f77b4;" x="177.802848" xlink:href="#m73061019a5" y="210.499895"/>
     <use style="fill:#1f77b4;stroke:#1f77b4;" x="155.64126" xlink:href="#m73061019a5" y="245.807559"/>
     <use style="fill:#1f77b4;stroke:#1f77b4;" x="145.091066" xlink:href="#m73061019a5" y="226.270649"/>
     <use style="fill:#1f77b4;stroke:#1f77b4;" x="188.168203" xlink:href="#m73061019a5" y="237.275428"/>
     <use style="fill:#1f77b4;stroke:#1f77b4;" x="148.327318" xlink:href="#m73061019a5" y="230.78034"/>
     <use style="fill:#1f77b4;stroke:#1f77b4;" x="198.381061" xlink:href="#m73061019a5" y="227.242864"/>
     <use style="fill:#1f77b4;stroke:#1f77b4;" x="180.156096" xlink:href="#m73061019a5" y="235.498709"/>
     <use style="fill:#1f77b4;stroke:#1f77b4;" x="131.696125" xlink:href="#m73061019a5" y="211.811686"/>
     <use style="fill:#1f77b4;stroke:#1f77b4;" x="190.268168" xlink:href="#m73061019a5" y="264.344601"/>
     <use style="fill:#1f77b4;stroke:#1f77b4;" x="162.75042" xlink:href="#m73061019a5" y="257.524516"/>
     <use style="fill:#1f77b4;stroke:#1f77b4;" x="157.265334" xlink:href="#m73061019a5" y="227.792053"/>
     <use style="fill:#1f77b4;stroke:#1f77b4;" x="121.305246" xlink:href="#m73061019a5" y="247.19336"/>
     <use style="fill:#1f77b4;stroke:#1f77b4;" x="152.288229" xlink:href="#m73061019a5" y="214.470059"/>
     <use style="fill:#1f77b4;stroke:#1f77b4;" x="166.792253" xlink:href="#m73061019a5" y="181.404215"/>
     <use style="fill:#1f77b4;stroke:#1f77b4;" x="180.659324" xlink:href="#m73061019a5" y="175.386745"/>
     <use style="fill:#1f77b4;stroke:#1f77b4;" x="78.877014" xlink:href="#m73061019a5" y="219.244586"/>
     <use style="fill:#1f77b4;stroke:#1f77b4;" x="237.184157" xlink:href="#m73061019a5" y="181.602679"/>
     <use style="fill:#1f77b4;stroke:#1f77b4;" x="137.502376" xlink:href="#m73061019a5" y="234.414636"/>
     <use style="fill:#1f77b4;stroke:#1f77b4;" x="137.766607" xlink:href="#m73061019a5" y="237.953945"/>
     <use style="fill:#1f77b4;stroke:#1f77b4;" x="169.542477" xlink:href="#m73061019a5" y="188.6351"/>
     <use style="fill:#1f77b4;stroke:#1f77b4;" x="241.224157" xlink:href="#m73061019a5" y="245.74351"/>
     <use style="fill:#1f77b4;stroke:#1f77b4;" x="193.364344" xlink:href="#m73061019a5" y="212.676712"/>
     <use style="fill:#1f77b4;stroke:#1f77b4;" x="132.984818" xlink:href="#m73061019a5" y="241.717838"/>
     <use style="fill:#1f77b4;stroke:#1f77b4;" x="185.362659" xlink:href="#m73061019a5" y="253.068439"/>
     <use style="fill:#1f77b4;stroke:#1f77b4;" x="177.660036" xlink:href="#m73061019a5" y="217.420334"/>
     <use style="fill:#1f77b4;stroke:#1f77b4;" x="196.055756" xlink:href="#m73061019a5" y="199.06958"/>
     <use style="fill:#1f77b4;stroke:#1f77b4;" x="122.553146" xlink:href="#m73061019a5" y="295.066544"/>
     <use style="fill:#1f77b4;stroke:#1f77b4;" x="148.20857" xlink:href="#m73061019a5" y="242.320764"/>
     <use style="fill:#1f77b4;stroke:#1f77b4;" x="202.715673" xlink:href="#m73061019a5" y="231.472759"/>
     <use style="fill:#1f77b4;stroke:#1f77b4;" x="178.163237" xlink:href="#m73061019a5" y="250.227384"/>
     <use style="fill:#1f77b4;stroke:#1f77b4;" x="156.710903" xlink:href="#m73061019a5" y="198.687158"/>
     <use style="fill:#1f77b4;stroke:#1f77b4;" x="194.617071" xlink:href="#m73061019a5" y="236.719321"/>
     <use style="fill:#1f77b4;stroke:#1f77b4;" x="103.511977" xlink:href="#m73061019a5" y="224.175518"/>
     <use style="fill:#1f77b4;stroke:#1f77b4;" x="107.025943" xlink:href="#m73061019a5" y="264.44479"/>
     <use style="fill:#1f77b4;stroke:#1f77b4;" x="200.567963" xlink:href="#m73061019a5" y="263.679012"/>
     <use style="fill:#1f77b4;stroke:#1f77b4;" x="158.970444" xlink:href="#m73061019a5" y="214.119809"/>
     <use style="fill:#1f77b4;stroke:#1f77b4;" x="142.739035" xlink:href="#m73061019a5" y="260.971903"/>
     <use style="fill:#1f77b4;stroke:#1f77b4;" x="155.886716" xlink:href="#m73061019a5" y="218.256101"/>
     <use style="fill:#1f77b4;stroke:#1f77b4;" x="134.844189" xlink:href="#m73061019a5" y="209.814217"/>
     <use style="fill:#1f77b4;stroke:#1f77b4;" x="167.412241" xlink:href="#m73061019a5" y="214.440502"/>
     <use style="fill:#1f77b4;stroke:#1f77b4;" x="157.151845" xlink:href="#m73061019a5" y="277.206933"/>
     <use style="fill:#1f77b4;stroke:#1f77b4;" x="106.107806" xlink:href="#m73061019a5" y="237.815133"/>
     <use style="fill:#1f77b4;stroke:#1f77b4;" x="102.628409" xlink:href="#m73061019a5" y="194.132569"/>
     <use style="fill:#1f77b4;stroke:#1f77b4;" x="159.607519" xlink:href="#m73061019a5" y="231.857321"/>
     <use style="fill:#1f77b4;stroke:#1f77b4;" x="218.946188" xlink:href="#m73061019a5" y="242.144012"/>
     <use style="fill:#1f77b4;stroke:#1f77b4;" x="74.298524" xlink:href="#m73061019a5" y="213.364559"/>
     <use style="fill:#1f77b4;stroke:#1f77b4;" x="95.498831" xlink:href="#m73061019a5" y="227.124271"/>
     <use style="fill:#1f77b4;stroke:#1f77b4;" x="157.470557" xlink:href="#m73061019a5" y="253.332772"/>
     <use style="fill:#1f77b4;stroke:#1f77b4;" x="157.402415" xlink:href="#m73061019a5" y="155.558223"/>
     <use style="fill:#1f77b4;stroke:#1f77b4;" x="155.988435" xlink:href="#m73061019a5" y="220.365302"/>
     <use style="fill:#1f77b4;stroke:#1f77b4;" x="219.214915" xlink:href="#m73061019a5" y="226.626936"/>
     <use style="fill:#1f77b4;stroke:#1f77b4;" x="194.797099" xlink:href="#m73061019a5" y="261.614244"/>
     <use style="fill:#1f77b4;stroke:#1f77b4;" x="137.103462" xlink:href="#m73061019a5" y="209.700687"/>
     <use style="fill:#1f77b4;stroke:#1f77b4;" x="203.077247" xlink:href="#m73061019a5" y="195.862537"/>
     <use style="fill:#1f77b4;stroke:#1f77b4;" x="181.37001" xlink:href="#m73061019a5" y="250.353587"/>
     <use style="fill:#1f77b4;stroke:#1f77b4;" x="185.379934" xlink:href="#m73061019a5" y="253.094584"/>
     <use style="fill:#1f77b4;stroke:#1f77b4;" x="89.20797" xlink:href="#m73061019a5" y="244.189606"/>
     <use style="fill:#1f77b4;stroke:#1f77b4;" x="104.628323" xlink:href="#m73061019a5" y="238.438338"/>
     <use style="fill:#1f77b4;stroke:#1f77b4;" x="184.854157" xlink:href="#m73061019a5" y="233.471538"/>
     <use style="fill:#1f77b4;stroke:#1f77b4;" x="185.741858" xlink:href="#m73061019a5" y="192.569152"/>
     <use style="fill:#1f77b4;stroke:#1f77b4;" x="169.102805" xlink:href="#m73061019a5" y="229.302873"/>
     <use style="fill:#1f77b4;stroke:#1f77b4;" x="234.565876" xlink:href="#m73061019a5" y="228.112613"/>
     <use style="fill:#1f77b4;stroke:#1f77b4;" x="149.280304" xlink:href="#m73061019a5" y="227.824167"/>
     <use style="fill:#1f77b4;stroke:#1f77b4;" x="187.448232" xlink:href="#m73061019a5" y="251.933053"/>
     <use style="fill:#1f77b4;stroke:#1f77b4;" x="114.869695" xlink:href="#m73061019a5" y="227.816076"/>
     <use style="fill:#1f77b4;stroke:#1f77b4;" x="190.735488" xlink:href="#m73061019a5" y="215.562088"/>
     <use style="fill:#1f77b4;stroke:#1f77b4;" x="199.829761" xlink:href="#m73061019a5" y="171.457005"/>
     <use style="fill:#1f77b4;stroke:#1f77b4;" x="121.516882" xlink:href="#m73061019a5" y="218.026336"/>
     <use style="fill:#1f77b4;stroke:#1f77b4;" x="162.478651" xlink:href="#m73061019a5" y="177.611728"/>
     <use style="fill:#1f77b4;stroke:#1f77b4;" x="142.565795" xlink:href="#m73061019a5" y="201.502876"/>
     <use style="fill:#1f77b4;stroke:#1f77b4;" x="151.375938" xlink:href="#m73061019a5" y="207.947008"/>
     <use style="fill:#1f77b4;stroke:#1f77b4;" x="193.20512" xlink:href="#m73061019a5" y="255.940565"/>
     <use style="fill:#1f77b4;stroke:#1f77b4;" x="192.323556" xlink:href="#m73061019a5" y="272.642334"/>
     <use style="fill:#1f77b4;stroke:#1f77b4;" x="183.69479" xlink:href="#m73061019a5" y="219.134401"/>
     <use style="fill:#1f77b4;stroke:#1f77b4;" x="145.012262" xlink:href="#m73061019a5" y="280.134006"/>
     <use style="fill:#1f77b4;stroke:#1f77b4;" x="236.846575" xlink:href="#m73061019a5" y="261.661161"/>
     <use style="fill:#1f77b4;stroke:#1f77b4;" x="132.641932" xlink:href="#m73061019a5" y="206.224493"/>
     <use style="fill:#1f77b4;stroke:#1f77b4;" x="173.261876" xlink:href="#m73061019a5" y="258.443009"/>
     <use style="fill:#1f77b4;stroke:#1f77b4;" x="145.743672" xlink:href="#m73061019a5" y="200.358764"/>
     <use style="fill:#1f77b4;stroke:#1f77b4;" x="157.882989" xlink:href="#m73061019a5" y="294.111062"/>
     <use style="fill:#1f77b4;stroke:#1f77b4;" x="210.142616" xlink:href="#m73061019a5" y="201.426442"/>
    </g>
   </g>
   <g id="PathCollection_2">
    <defs>
     <path d="M 0 3 
C 0.795609 3 1.55874 2.683901 2.12132 2.12132 
C 2.683901 1.55874 3 0.795609 3 0 
C 3 -0.795609 2.683901 -1.55874 2.12132 -2.12132 
C 1.55874 -2.683901 0.795609 -3 0 -3 
C -0.795609 -3 -1.55874 -2.683901 -2.12132 -2.12132 
C -2.683901 -1.55874 -3 -0.795609 -3 0 
C -3 0.795609 -2.683901 1.55874 -2.12132 2.12132 
C -1.55874 2.683901 -0.795609 3 0 3 
z
" id="m1053f2927b" style="stroke:#ff7f0e;"/>
    </defs>
    <g clip-path="url(#pac8d0aed40)">
     <use style="fill:#ff7f0e;stroke:#ff7f0e;" x="347.281823" xlink:href="#m1053f2927b" y="180.73458"/>
     <use style="fill:#ff7f0e;stroke:#ff7f0e;" x="221.497576" xlink:href="#m1053f2927b" y="80.24248"/>
     <use style="fill:#ff7f0e;stroke:#ff7f0e;" x="329.207319" xlink:href="#m1053f2927b" y="118.580938"/>
     <use style="fill:#ff7f0e;stroke:#ff7f0e;" x="311.588275" xlink:href="#m1053f2927b" y="95.412832"/>
     <use style="fill:#ff7f0e;stroke:#ff7f0e;" x="297.339559" xlink:href="#m1053f2927b" y="126.658401"/>
     <use style="fill:#ff7f0e;stroke:#ff7f0e;" x="315.689848" xlink:href="#m1053f2927b" y="129.421392"/>
     <use style="fill:#ff7f0e;stroke:#ff7f0e;" x="353.876949" xlink:href="#m1053f2927b" y="110.29389"/>
     <use style="fill:#ff7f0e;stroke:#ff7f0e;" x="293.316896" xlink:href="#m1053f2927b" y="111.357884"/>
     <use style="fill:#ff7f0e;stroke:#ff7f0e;" x="320.493861" xlink:href="#m1053f2927b" y="139.376535"/>
     <use style="fill:#ff7f0e;stroke:#ff7f0e;" x="287.59005" xlink:href="#m1053f2927b" y="112.654959"/>
     <use style="fill:#ff7f0e;stroke:#ff7f0e;" x="279.223918" xlink:href="#m1053f2927b" y="132.693739"/>
     <use style="fill:#ff7f0e;stroke:#ff7f0e;" x="298.105316" xlink:href="#m1053f2927b" y="166.774109"/>
     <use style="fill:#ff7f0e;stroke:#ff7f0e;" x="306.949534" xlink:href="#m1053f2927b" y="58.307492"/>
     <use style="fill:#ff7f0e;stroke:#ff7f0e;" x="313.141045" xlink:href="#m1053f2927b" y="142.914552"/>
     <use style="fill:#ff7f0e;stroke:#ff7f0e;" x="304.022041" xlink:href="#m1053f2927b" y="150.357519"/>
     <use style="fill:#ff7f0e;stroke:#ff7f0e;" x="266.376447" xlink:href="#m1053f2927b" y="98.408684"/>
     <use style="fill:#ff7f0e;stroke:#ff7f0e;" x="338.714905" xlink:href="#m1053f2927b" y="109.046782"/>
     <use style="fill:#ff7f0e;stroke:#ff7f0e;" x="258.995132" xlink:href="#m1053f2927b" y="85.4367"/>
     <use style="fill:#ff7f0e;stroke:#ff7f0e;" x="310.818792" xlink:href="#m1053f2927b" y="148.627125"/>
     <use style="fill:#ff7f0e;stroke:#ff7f0e;" x="347.779275" xlink:href="#m1053f2927b" y="121.89231"/>
     <use style="fill:#ff7f0e;stroke:#ff7f0e;" x="330.965566" xlink:href="#m1053f2927b" y="150.115868"/>
     <use style="fill:#ff7f0e;stroke:#ff7f0e;" x="262.325714" xlink:href="#m1053f2927b" y="145.196369"/>
     <use style="fill:#ff7f0e;stroke:#ff7f0e;" x="397.306564" xlink:href="#m1053f2927b" y="138.654851"/>
     <use style="fill:#ff7f0e;stroke:#ff7f0e;" x="360.666991" xlink:href="#m1053f2927b" y="127.040674"/>
     <use style="fill:#ff7f0e;stroke:#ff7f0e;" x="302.590807" xlink:href="#m1053f2927b" y="122.76355"/>
     <use style="fill:#ff7f0e;stroke:#ff7f0e;" x="321.903547" xlink:href="#m1053f2927b" y="110.700638"/>
     <use style="fill:#ff7f0e;stroke:#ff7f0e;" x="265.88959" xlink:href="#m1053f2927b" y="147.421296"/>
     <use style="fill:#ff7f0e;stroke:#ff7f0e;" x="305.636854" xlink:href="#m1053f2927b" y="136.085233"/>
     <use style="fill:#ff7f0e;stroke:#ff7f0e;" x="312.164125" xlink:href="#m1053f2927b" y="140.903152"/>
     <use style="fill:#ff7f0e;stroke:#ff7f0e;" x="331.265077" xlink:href="#m1053f2927b" y="142.207922"/>
     <use style="fill:#ff7f0e;stroke:#ff7f0e;" x="293.004371" xlink:href="#m1053f2927b" y="137.200087"/>
     <use style="fill:#ff7f0e;stroke:#ff7f0e;" x="327.776076" xlink:href="#m1053f2927b" y="81.865867"/>
     <use style="fill:#ff7f0e;stroke:#ff7f0e;" x="336.17705" xlink:href="#m1053f2927b" y="121.51751"/>
     <use style="fill:#ff7f0e;stroke:#ff7f0e;" x="289.464465" xlink:href="#m1053f2927b" y="156.432935"/>
     <use style="fill:#ff7f0e;stroke:#ff7f0e;" x="331.224655" xlink:href="#m1053f2927b" y="109.840347"/>
     <use style="fill:#ff7f0e;stroke:#ff7f0e;" x="295.33927" xlink:href="#m1053f2927b" y="124.825762"/>
     <use style="fill:#ff7f0e;stroke:#ff7f0e;" x="345.457269" xlink:href="#m1053f2927b" y="153.660028"/>
     <use style="fill:#ff7f0e;stroke:#ff7f0e;" x="293.240435" xlink:href="#m1053f2927b" y="94.064728"/>
     <use style="fill:#ff7f0e;stroke:#ff7f0e;" x="373.085973" xlink:href="#m1053f2927b" y="90.19775"/>
     <use style="fill:#ff7f0e;stroke:#ff7f0e;" x="355.028173" xlink:href="#m1053f2927b" y="60.526603"/>
     <use style="fill:#ff7f0e;stroke:#ff7f0e;" x="283.228627" xlink:href="#m1053f2927b" y="126.728186"/>
     <use style="fill:#ff7f0e;stroke:#ff7f0e;" x="353.069197" xlink:href="#m1053f2927b" y="144.464521"/>
     <use style="fill:#ff7f0e;stroke:#ff7f0e;" x="373.45187" xlink:href="#m1053f2927b" y="96.001841"/>
     <use style="fill:#ff7f0e;stroke:#ff7f0e;" x="319.885168" xlink:href="#m1053f2927b" y="85.804804"/>
     <use style="fill:#ff7f0e;stroke:#ff7f0e;" x="359.806832" xlink:href="#m1053f2927b" y="138.843452"/>
     <use style="fill:#ff7f0e;stroke:#ff7f0e;" x="339.816986" xlink:href="#m1053f2927b" y="160.949709"/>
     <use style="fill:#ff7f0e;stroke:#ff7f0e;" x="313.697355" xlink:href="#m1053f2927b" y="123.105892"/>
     <use style="fill:#ff7f0e;stroke:#ff7f0e;" x="357.706827" xlink:href="#m1053f2927b" y="156.710042"/>
     <use style="fill:#ff7f0e;stroke:#ff7f0e;" x="292.345157" xlink:href="#m1053f2927b" y="149.03381"/>
     <use style="fill:#ff7f0e;stroke:#ff7f0e;" x="285.679022" xlink:href="#m1053f2927b" y="146.271251"/>
     <use style="fill:#ff7f0e;stroke:#ff7f0e;" x="356.895879" xlink:href="#m1053f2927b" y="129.089415"/>
     <use style="fill:#ff7f0e;stroke:#ff7f0e;" x="255.484646" xlink:href="#m1053f2927b" y="124.985392"/>
     <use style="fill:#ff7f0e;stroke:#ff7f0e;" x="296.032474" xlink:href="#m1053f2927b" y="111.281161"/>
     <use style="fill:#ff7f0e;stroke:#ff7f0e;" x="352.405348" xlink:href="#m1053f2927b" y="131.998931"/>
     <use style="fill:#ff7f0e;stroke:#ff7f0e;" x="302.619847" xlink:href="#m1053f2927b" y="80.672943"/>
     <use style="fill:#ff7f0e;stroke:#ff7f0e;" x="290.271788" xlink:href="#m1053f2927b" y="143.798516"/>
     <use style="fill:#ff7f0e;stroke:#ff7f0e;" x="323.398544" xlink:href="#m1053f2927b" y="68.893351"/>
     <use style="fill:#ff7f0e;stroke:#ff7f0e;" x="337.53408" xlink:href="#m1053f2927b" y="132.905394"/>
     <use style="fill:#ff7f0e;stroke:#ff7f0e;" x="271.774942" xlink:href="#m1053f2927b" y="136.091349"/>
     <use style="fill:#ff7f0e;stroke:#ff7f0e;" x="366.556426" xlink:href="#m1053f2927b" y="105.136481"/>
     <use style="fill:#ff7f0e;stroke:#ff7f0e;" x="272.418136" xlink:href="#m1053f2927b" y="93.954752"/>
     <use style="fill:#ff7f0e;stroke:#ff7f0e;" x="303.416769" xlink:href="#m1053f2927b" y="103.44048"/>
     <use style="fill:#ff7f0e;stroke:#ff7f0e;" x="280.86067" xlink:href="#m1053f2927b" y="98.686576"/>
     <use style="fill:#ff7f0e;stroke:#ff7f0e;" x="330.325316" xlink:href="#m1053f2927b" y="175.031987"/>
     <use style="fill:#ff7f0e;stroke:#ff7f0e;" x="254.951151" xlink:href="#m1053f2927b" y="103.683177"/>
     <use style="fill:#ff7f0e;stroke:#ff7f0e;" x="322.820559" xlink:href="#m1053f2927b" y="129.492825"/>
     <use style="fill:#ff7f0e;stroke:#ff7f0e;" x="275.64976" xlink:href="#m1053f2927b" y="97.219988"/>
     <use style="fill:#ff7f0e;stroke:#ff7f0e;" x="349.213102" xlink:href="#m1053f2927b" y="111.082118"/>
     <use style="fill:#ff7f0e;stroke:#ff7f0e;" x="323.436524" xlink:href="#m1053f2927b" y="175.169014"/>
     <use style="fill:#ff7f0e;stroke:#ff7f0e;" x="238.459314" xlink:href="#m1053f2927b" y="104.734441"/>
     <use style="fill:#ff7f0e;stroke:#ff7f0e;" x="316.351108" xlink:href="#m1053f2927b" y="132.366755"/>
     <use style="fill:#ff7f0e;stroke:#ff7f0e;" x="310.295592" xlink:href="#m1053f2927b" y="79.284351"/>
     <use style="fill:#ff7f0e;stroke:#ff7f0e;" x="379.543671" xlink:href="#m1053f2927b" y="107.087227"/>
     <use style="fill:#ff7f0e;stroke:#ff7f0e;" x="267.596932" xlink:href="#m1053f2927b" y="120.209713"/>
     <use style="fill:#ff7f0e;stroke:#ff7f0e;" x="356.033296" xlink:href="#m1053f2927b" y="109.476"/>
     <use style="fill:#ff7f0e;stroke:#ff7f0e;" x="344.974586" xlink:href="#m1053f2927b" y="108.229839"/>
     <use style="fill:#ff7f0e;stroke:#ff7f0e;" x="298.564777" xlink:href="#m1053f2927b" y="89.790686"/>
     <use style="fill:#ff7f0e;stroke:#ff7f0e;" x="320.705565" xlink:href="#m1053f2927b" y="133.182671"/>
     <use style="fill:#ff7f0e;stroke:#ff7f0e;" x="287.465841" xlink:href="#m1053f2927b" y="103.034435"/>
     <use style="fill:#ff7f0e;stroke:#ff7f0e;" x="348.030065" xlink:href="#m1053f2927b" y="91.312238"/>
     <use style="fill:#ff7f0e;stroke:#ff7f0e;" x="306.55665" xlink:href="#m1053f2927b" y="94.996518"/>
     <use style="fill:#ff7f0e;stroke:#ff7f0e;" x="343.091793" xlink:href="#m1053f2927b" y="132.492917"/>
     <use style="fill:#ff7f0e;stroke:#ff7f0e;" x="326.754878" xlink:href="#m1053f2927b" y="151.945552"/>
     <use style="fill:#ff7f0e;stroke:#ff7f0e;" x="346.542568" xlink:href="#m1053f2927b" y="143.759896"/>
     <use style="fill:#ff7f0e;stroke:#ff7f0e;" x="285.756167" xlink:href="#m1053f2927b" y="153.106284"/>
     <use style="fill:#ff7f0e;stroke:#ff7f0e;" x="341.045985" xlink:href="#m1053f2927b" y="57.649876"/>
     <use style="fill:#ff7f0e;stroke:#ff7f0e;" x="298.631275" xlink:href="#m1053f2927b" y="110.789549"/>
     <use style="fill:#ff7f0e;stroke:#ff7f0e;" x="306.211382" xlink:href="#m1053f2927b" y="153.54098"/>
     <use style="fill:#ff7f0e;stroke:#ff7f0e;" x="313.61618" xlink:href="#m1053f2927b" y="105.080653"/>
     <use style="fill:#ff7f0e;stroke:#ff7f0e;" x="331.928679" xlink:href="#m1053f2927b" y="143.37874"/>
     <use style="fill:#ff7f0e;stroke:#ff7f0e;" x="285.862445" xlink:href="#m1053f2927b" y="72.352265"/>
     <use style="fill:#ff7f0e;stroke:#ff7f0e;" x="269.115787" xlink:href="#m1053f2927b" y="83.044767"/>
     <use style="fill:#ff7f0e;stroke:#ff7f0e;" x="381.857443" xlink:href="#m1053f2927b" y="118.826619"/>
     <use style="fill:#ff7f0e;stroke:#ff7f0e;" x="309.227661" xlink:href="#m1053f2927b" y="113.481812"/>
     <use style="fill:#ff7f0e;stroke:#ff7f0e;" x="337.74005" xlink:href="#m1053f2927b" y="112.362352"/>
     <use style="fill:#ff7f0e;stroke:#ff7f0e;" x="260.501588" xlink:href="#m1053f2927b" y="120.957943"/>
     <use style="fill:#ff7f0e;stroke:#ff7f0e;" x="314.705359" xlink:href="#m1053f2927b" y="113.668298"/>
     <use style="fill:#ff7f0e;stroke:#ff7f0e;" x="320.730157" xlink:href="#m1053f2927b" y="157.413449"/>
     <use style="fill:#ff7f0e;stroke:#ff7f0e;" x="348.13062" xlink:href="#m1053f2927b" y="54.952013"/>
     <use style="fill:#ff7f0e;stroke:#ff7f0e;" x="303.845222" xlink:href="#m1053f2927b" y="122.647545"/>
    </g>
   </g>
   <g id="matplotlib.axis_1">
    <g id="xtick_1">
     <g id="line2d_1">
      <defs>
       <path d="M 0 0 
L 0 3.5 
" id="m5516b0308c" style="stroke:#000000;stroke-width:0.8;"/>
      </defs>
      <g>
       <use style="stroke:#000000;stroke-width:0.8;" x="84.461904" xlink:href="#m5516b0308c" y="307.584"/>
      </g>
     </g>
     <g id="text_1">
      <!-- 0 -->
      <defs>
       <path d="M 31.78125 66.40625 
Q 24.171875 66.40625 20.328125 58.90625 
Q 16.5 51.421875 16.5 36.375 
Q 16.5 21.390625 20.328125 13.890625 
Q 24.171875 6.390625 31.78125 6.390625 
Q 39.453125 6.390625 43.28125 13.890625 
Q 47.125 21.390625 47.125 36.375 
Q 47.125 51.421875 43.28125 58.90625 
Q 39.453125 66.40625 31.78125 66.40625 
z
M 31.78125 74.21875 
Q 44.046875 74.21875 50.515625 64.515625 
Q 56.984375 54.828125 56.984375 36.375 
Q 56.984375 17.96875 50.515625 8.265625 
Q 44.046875 -1.421875 31.78125 -1.421875 
Q 19.53125 -1.421875 13.0625 8.265625 
Q 6.59375 17.96875 6.59375 36.375 
Q 6.59375 54.828125 13.0625 64.515625 
Q 19.53125 74.21875 31.78125 74.21875 
z
" id="DejaVuSans-48"/>
      </defs>
      <g transform="translate(81.280654 322.182437)scale(0.1 -0.1)">
       <use xlink:href="#DejaVuSans-48"/>
      </g>
     </g>
    </g>
    <g id="xtick_2">
     <g id="line2d_2">
      <g>
       <use style="stroke:#000000;stroke-width:0.8;" x="161.473564" xlink:href="#m5516b0308c" y="307.584"/>
      </g>
     </g>
     <g id="text_2">
      <!-- 1 -->
      <defs>
       <path d="M 12.40625 8.296875 
L 28.515625 8.296875 
L 28.515625 63.921875 
L 10.984375 60.40625 
L 10.984375 69.390625 
L 28.421875 72.90625 
L 38.28125 72.90625 
L 38.28125 8.296875 
L 54.390625 8.296875 
L 54.390625 0 
L 12.40625 0 
z
" id="DejaVuSans-49"/>
      </defs>
      <g transform="translate(158.292314 322.182437)scale(0.1 -0.1)">
       <use xlink:href="#DejaVuSans-49"/>
      </g>
     </g>
    </g>
    <g id="xtick_3">
     <g id="line2d_3">
      <g>
       <use style="stroke:#000000;stroke-width:0.8;" x="238.485224" xlink:href="#m5516b0308c" y="307.584"/>
      </g>
     </g>
     <g id="text_3">
      <!-- 2 -->
      <defs>
       <path d="M 19.1875 8.296875 
L 53.609375 8.296875 
L 53.609375 0 
L 7.328125 0 
L 7.328125 8.296875 
Q 12.9375 14.109375 22.625 23.890625 
Q 32.328125 33.6875 34.8125 36.53125 
Q 39.546875 41.84375 41.421875 45.53125 
Q 43.3125 49.21875 43.3125 52.78125 
Q 43.3125 58.59375 39.234375 62.25 
Q 35.15625 65.921875 28.609375 65.921875 
Q 23.96875 65.921875 18.8125 64.3125 
Q 13.671875 62.703125 7.8125 59.421875 
L 7.8125 69.390625 
Q 13.765625 71.78125 18.9375 73 
Q 24.125 74.21875 28.421875 74.21875 
Q 39.75 74.21875 46.484375 68.546875 
Q 53.21875 62.890625 53.21875 53.421875 
Q 53.21875 48.921875 51.53125 44.890625 
Q 49.859375 40.875 45.40625 35.40625 
Q 44.1875 33.984375 37.640625 27.21875 
Q 31.109375 20.453125 19.1875 8.296875 
z
" id="DejaVuSans-50"/>
      </defs>
      <g transform="translate(235.303974 322.182437)scale(0.1 -0.1)">
       <use xlink:href="#DejaVuSans-50"/>
      </g>
     </g>
    </g>
    <g id="xtick_4">
     <g id="line2d_4">
      <g>
       <use style="stroke:#000000;stroke-width:0.8;" x="315.496883" xlink:href="#m5516b0308c" y="307.584"/>
      </g>
     </g>
     <g id="text_4">
      <!-- 3 -->
      <defs>
       <path d="M 40.578125 39.3125 
Q 47.65625 37.796875 51.625 33 
Q 55.609375 28.21875 55.609375 21.1875 
Q 55.609375 10.40625 48.1875 4.484375 
Q 40.765625 -1.421875 27.09375 -1.421875 
Q 22.515625 -1.421875 17.65625 -0.515625 
Q 12.796875 0.390625 7.625 2.203125 
L 7.625 11.71875 
Q 11.71875 9.328125 16.59375 8.109375 
Q 21.484375 6.890625 26.8125 6.890625 
Q 36.078125 6.890625 40.9375 10.546875 
Q 45.796875 14.203125 45.796875 21.1875 
Q 45.796875 27.640625 41.28125 31.265625 
Q 36.765625 34.90625 28.71875 34.90625 
L 20.21875 34.90625 
L 20.21875 43.015625 
L 29.109375 43.015625 
Q 36.375 43.015625 40.234375 45.921875 
Q 44.09375 48.828125 44.09375 54.296875 
Q 44.09375 59.90625 40.109375 62.90625 
Q 36.140625 65.921875 28.71875 65.921875 
Q 24.65625 65.921875 20.015625 65.03125 
Q 15.375 64.15625 9.8125 62.3125 
L 9.8125 71.09375 
Q 15.4375 72.65625 20.34375 73.4375 
Q 25.25 74.21875 29.59375 74.21875 
Q 40.828125 74.21875 47.359375 69.109375 
Q 53.90625 64.015625 53.90625 55.328125 
Q 53.90625 49.265625 50.4375 45.09375 
Q 46.96875 40.921875 40.578125 39.3125 
z
" id="DejaVuSans-51"/>
      </defs>
      <g transform="translate(312.315633 322.182437)scale(0.1 -0.1)">
       <use xlink:href="#DejaVuSans-51"/>
      </g>
     </g>
    </g>
    <g id="xtick_5">
     <g id="line2d_5">
      <g>
       <use style="stroke:#000000;stroke-width:0.8;" x="392.508543" xlink:href="#m5516b0308c" y="307.584"/>
      </g>
     </g>
     <g id="text_5">
      <!-- 4 -->
      <defs>
       <path d="M 37.796875 64.3125 
L 12.890625 25.390625 
L 37.796875 25.390625 
z
M 35.203125 72.90625 
L 47.609375 72.90625 
L 47.609375 25.390625 
L 58.015625 25.390625 
L 58.015625 17.1875 
L 47.609375 17.1875 
L 47.609375 0 
L 37.796875 0 
L 37.796875 17.1875 
L 4.890625 17.1875 
L 4.890625 26.703125 
z
" id="DejaVuSans-52"/>
      </defs>
      <g transform="translate(389.327293 322.182437)scale(0.1 -0.1)">
       <use xlink:href="#DejaVuSans-52"/>
      </g>
     </g>
    </g>
   </g>
   <g id="matplotlib.axis_2">
    <g id="ytick_1">
     <g id="line2d_6">
      <defs>
       <path d="M 0 0 
L -3.5 0 
" id="me965c2d268" style="stroke:#000000;stroke-width:0.8;"/>
      </defs>
      <g>
       <use style="stroke:#000000;stroke-width:0.8;" x="57.6" xlink:href="#me965c2d268" y="276.396399"/>
      </g>
     </g>
     <g id="text_6">
      <!-- 0 -->
      <g transform="translate(44.2375 280.195618)scale(0.1 -0.1)">
       <use xlink:href="#DejaVuSans-48"/>
      </g>
     </g>
    </g>
    <g id="ytick_2">
     <g id="line2d_7">
      <g>
       <use style="stroke:#000000;stroke-width:0.8;" x="57.6" xlink:href="#me965c2d268" y="224.472967"/>
      </g>
     </g>
     <g id="text_7">
      <!-- 1 -->
      <g transform="translate(44.2375 228.272186)scale(0.1 -0.1)">
       <use xlink:href="#DejaVuSans-49"/>
      </g>
     </g>
    </g>
    <g id="ytick_3">
     <g id="line2d_8">
      <g>
       <use style="stroke:#000000;stroke-width:0.8;" x="57.6" xlink:href="#me965c2d268" y="172.549536"/>
      </g>
     </g>
     <g id="text_8">
      <!-- 2 -->
      <g transform="translate(44.2375 176.348754)scale(0.1 -0.1)">
       <use xlink:href="#DejaVuSans-50"/>
      </g>
     </g>
    </g>
    <g id="ytick_4">
     <g id="line2d_9">
      <g>
       <use style="stroke:#000000;stroke-width:0.8;" x="57.6" xlink:href="#me965c2d268" y="120.626104"/>
      </g>
     </g>
     <g id="text_9">
      <!-- 3 -->
      <g transform="translate(44.2375 124.425323)scale(0.1 -0.1)">
       <use xlink:href="#DejaVuSans-51"/>
      </g>
     </g>
    </g>
    <g id="ytick_5">
     <g id="line2d_10">
      <g>
       <use style="stroke:#000000;stroke-width:0.8;" x="57.6" xlink:href="#me965c2d268" y="68.702672"/>
      </g>
     </g>
     <g id="text_10">
      <!-- 4 -->
      <g transform="translate(44.2375 72.501891)scale(0.1 -0.1)">
       <use xlink:href="#DejaVuSans-52"/>
      </g>
     </g>
    </g>
   </g>
   <g id="patch_3">
    <path d="M 57.6 307.584 
L 57.6 41.472 
" style="fill:none;stroke:#000000;stroke-linecap:square;stroke-linejoin:miter;stroke-width:0.8;"/>
   </g>
   <g id="patch_4">
    <path d="M 414.72 307.584 
L 414.72 41.472 
" style="fill:none;stroke:#000000;stroke-linecap:square;stroke-linejoin:miter;stroke-width:0.8;"/>
   </g>
   <g id="patch_5">
    <path d="M 57.6 307.584 
L 414.72 307.584 
" style="fill:none;stroke:#000000;stroke-linecap:square;stroke-linejoin:miter;stroke-width:0.8;"/>
   </g>
   <g id="patch_6">
    <path d="M 57.6 41.472 
L 414.72 41.472 
" style="fill:none;stroke:#000000;stroke-linecap:square;stroke-linejoin:miter;stroke-width:0.8;"/>
   </g>
  </g>
 </g>
 <defs>
  <clipPath id="pac8d0aed40">
   <rect height="266.112" width="357.12" x="57.6" y="41.472"/>
  </clipPath>
 </defs>
</svg>
