<?xml version="1.0" encoding="utf-8" standalone="no"?>
<!DOCTYPE svg PUBLIC "-//W3C//DTD SVG 1.1//EN"
  "http://www.w3.org/Graphics/SVG/1.1/DTD/svg11.dtd">
<!-- Created with matplotlib (https://matplotlib.org/) -->
<svg height="345.6pt" version="1.1" viewBox="0 0 460.8 345.6" width="460.8pt" xmlns="http://www.w3.org/2000/svg" xmlns:xlink="http://www.w3.org/1999/xlink">
 <defs>
  <style type="text/css">
*{stroke-linecap:butt;stroke-linejoin:round;}
  </style>
 </defs>
 <g id="figure_1">
  <g id="patch_1">
   <path d="M 0 345.6 
L 460.8 345.6 
L 460.8 0 
L 0 0 
z
" style="fill:#ffffff;"/>
  </g>
  <g id="axes_1">
   <g id="patch_2">
    <path d="M 57.6 307.584 
L 414.72 307.584 
L 414.72 41.472 
L 57.6 41.472 
z
" style="fill:#ffffff;"/>
   </g>
   <g id="PathCollection_1">
    <defs>
     <path d="M 0 3 
C 0.795609 3 1.55874 2.683901 2.12132 2.12132 
C 2.683901 1.55874 3 0.795609 3 0 
C 3 -0.795609 2.683901 -1.55874 2.12132 -2.12132 
C 1.55874 -2.683901 0.795609 -3 0 -3 
C -0.795609 -3 -1.55874 -2.683901 -2.12132 -2.12132 
C -2.683901 -1.55874 -3 -0.795609 -3 0 
C -3 0.795609 -2.683901 1.55874 -2.12132 2.12132 
C -1.55874 2.683901 -0.795609 3 0 3 
z
" id="m46946eb539" style="stroke:#1f77b4;"/>
    </defs>
    <g clip-path="url(#p2ddf61f572)">
     <use style="fill:#1f77b4;stroke:#1f77b4;" x="281.651648" xlink:href="#m46946eb539" y="132.441045"/>
     <use style="fill:#1f77b4;stroke:#1f77b4;" x="381.55876" xlink:href="#m46946eb539" y="175.291168"/>
     <use style="fill:#1f77b4;stroke:#1f77b4;" x="223.282323" xlink:href="#m46946eb539" y="153.158926"/>
     <use style="fill:#1f77b4;stroke:#1f77b4;" x="259.232484" xlink:href="#m46946eb539" y="208.139406"/>
     <use style="fill:#1f77b4;stroke:#1f77b4;" x="262.50002" xlink:href="#m46946eb539" y="208.731773"/>
     <use style="fill:#1f77b4;stroke:#1f77b4;" x="295.118138" xlink:href="#m46946eb539" y="180.621669"/>
     <use style="fill:#1f77b4;stroke:#1f77b4;" x="297.956078" xlink:href="#m46946eb539" y="157.268412"/>
     <use style="fill:#1f77b4;stroke:#1f77b4;" x="247.910399" xlink:href="#m46946eb539" y="95.198526"/>
     <use style="fill:#1f77b4;stroke:#1f77b4;" x="344.078582" xlink:href="#m46946eb539" y="134.926577"/>
     <use style="fill:#1f77b4;stroke:#1f77b4;" x="348.105394" xlink:href="#m46946eb539" y="114.725778"/>
     <use style="fill:#1f77b4;stroke:#1f77b4;" x="288.311696" xlink:href="#m46946eb539" y="184.539744"/>
     <use style="fill:#1f77b4;stroke:#1f77b4;" x="280.496772" xlink:href="#m46946eb539" y="114.825856"/>
     <use style="fill:#1f77b4;stroke:#1f77b4;" x="335.262044" xlink:href="#m46946eb539" y="143.277832"/>
     <use style="fill:#1f77b4;stroke:#1f77b4;" x="250.465624" xlink:href="#m46946eb539" y="129.061016"/>
     <use style="fill:#1f77b4;stroke:#1f77b4;" x="368.999081" xlink:href="#m46946eb539" y="136.796302"/>
     <use style="fill:#1f77b4;stroke:#1f77b4;" x="190.183366" xlink:href="#m46946eb539" y="117.446551"/>
     <use style="fill:#1f77b4;stroke:#1f77b4;" x="319.226143" xlink:href="#m46946eb539" y="178.364622"/>
     <use style="fill:#1f77b4;stroke:#1f77b4;" x="251.425507" xlink:href="#m46946eb539" y="149.237144"/>
     <use style="fill:#1f77b4;stroke:#1f77b4;" x="283.379465" xlink:href="#m46946eb539" y="196.741943"/>
     <use style="fill:#1f77b4;stroke:#1f77b4;" x="232.840194" xlink:href="#m46946eb539" y="223.896681"/>
     <use style="fill:#1f77b4;stroke:#1f77b4;" x="360.837545" xlink:href="#m46946eb539" y="128.878281"/>
     <use style="fill:#1f77b4;stroke:#1f77b4;" x="260.824216" xlink:href="#m46946eb539" y="139.67586"/>
     <use style="fill:#1f77b4;stroke:#1f77b4;" x="266.306594" xlink:href="#m46946eb539" y="203.930207"/>
     <use style="fill:#1f77b4;stroke:#1f77b4;" x="275.526498" xlink:href="#m46946eb539" y="168.65276"/>
     <use style="fill:#1f77b4;stroke:#1f77b4;" x="284.014857" xlink:href="#m46946eb539" y="163.374675"/>
     <use style="fill:#1f77b4;stroke:#1f77b4;" x="253.201539" xlink:href="#m46946eb539" y="202.131728"/>
     <use style="fill:#1f77b4;stroke:#1f77b4;" x="301.855191" xlink:href="#m46946eb539" y="190.354599"/>
     <use style="fill:#1f77b4;stroke:#1f77b4;" x="312.421552" xlink:href="#m46946eb539" y="178.094182"/>
     <use style="fill:#1f77b4;stroke:#1f77b4;" x="289.355244" xlink:href="#m46946eb539" y="151.914219"/>
     <use style="fill:#1f77b4;stroke:#1f77b4;" x="360.871483" xlink:href="#m46946eb539" y="284.477873"/>
     <use style="fill:#1f77b4;stroke:#1f77b4;" x="237.467672" xlink:href="#m46946eb539" y="160.530918"/>
     <use style="fill:#1f77b4;stroke:#1f77b4;" x="306.712803" xlink:href="#m46946eb539" y="171.654222"/>
     <use style="fill:#1f77b4;stroke:#1f77b4;" x="318.856852" xlink:href="#m46946eb539" y="139.781473"/>
     <use style="fill:#1f77b4;stroke:#1f77b4;" x="301.183661" xlink:href="#m46946eb539" y="186.691066"/>
     <use style="fill:#1f77b4;stroke:#1f77b4;" x="343.036383" xlink:href="#m46946eb539" y="227.720587"/>
     <use style="fill:#1f77b4;stroke:#1f77b4;" x="320.990846" xlink:href="#m46946eb539" y="227.030626"/>
     <use style="fill:#1f77b4;stroke:#1f77b4;" x="374.740851" xlink:href="#m46946eb539" y="166.58592"/>
     <use style="fill:#1f77b4;stroke:#1f77b4;" x="213.280489" xlink:href="#m46946eb539" y="171.560938"/>
     <use style="fill:#1f77b4;stroke:#1f77b4;" x="318.457849" xlink:href="#m46946eb539" y="166.168005"/>
     <use style="fill:#1f77b4;stroke:#1f77b4;" x="207.303799" xlink:href="#m46946eb539" y="53.887732"/>
     <use style="fill:#1f77b4;stroke:#1f77b4;" x="229.456425" xlink:href="#m46946eb539" y="149.610867"/>
     <use style="fill:#1f77b4;stroke:#1f77b4;" x="343.299045" xlink:href="#m46946eb539" y="165.058807"/>
     <use style="fill:#1f77b4;stroke:#1f77b4;" x="213.120496" xlink:href="#m46946eb539" y="138.156305"/>
     <use style="fill:#1f77b4;stroke:#1f77b4;" x="320.290058" xlink:href="#m46946eb539" y="223.593918"/>
     <use style="fill:#1f77b4;stroke:#1f77b4;" x="315.887808" xlink:href="#m46946eb539" y="195.671312"/>
     <use style="fill:#1f77b4;stroke:#1f77b4;" x="273.020049" xlink:href="#m46946eb539" y="130.433631"/>
     <use style="fill:#1f77b4;stroke:#1f77b4;" x="217.968542" xlink:href="#m46946eb539" y="170.854993"/>
     <use style="fill:#1f77b4;stroke:#1f77b4;" x="313.576541" xlink:href="#m46946eb539" y="196.33828"/>
     <use style="fill:#1f77b4;stroke:#1f77b4;" x="202.368138" xlink:href="#m46946eb539" y="181.512568"/>
     <use style="fill:#1f77b4;stroke:#1f77b4;" x="398.188297" xlink:href="#m46946eb539" y="130.69694"/>
     <use style="fill:#1f77b4;stroke:#1f77b4;" x="298.545694" xlink:href="#m46946eb539" y="129.449149"/>
     <use style="fill:#1f77b4;stroke:#1f77b4;" x="315.568819" xlink:href="#m46946eb539" y="152.564979"/>
     <use style="fill:#1f77b4;stroke:#1f77b4;" x="162.502242" xlink:href="#m46946eb539" y="153.506629"/>
     <use style="fill:#1f77b4;stroke:#1f77b4;" x="297.965857" xlink:href="#m46946eb539" y="131.385576"/>
     <use style="fill:#1f77b4;stroke:#1f77b4;" x="349.264024" xlink:href="#m46946eb539" y="195.537261"/>
     <use style="fill:#1f77b4;stroke:#1f77b4;" x="200.511278" xlink:href="#m46946eb539" y="143.035388"/>
     <use style="fill:#1f77b4;stroke:#1f77b4;" x="269.2149" xlink:href="#m46946eb539" y="172.410069"/>
     <use style="fill:#1f77b4;stroke:#1f77b4;" x="275.097738" xlink:href="#m46946eb539" y="155.111419"/>
     <use style="fill:#1f77b4;stroke:#1f77b4;" x="345.586912" xlink:href="#m46946eb539" y="180.384914"/>
     <use style="fill:#1f77b4;stroke:#1f77b4;" x="253.651833" xlink:href="#m46946eb539" y="172.19495"/>
     <use style="fill:#1f77b4;stroke:#1f77b4;" x="278.11309" xlink:href="#m46946eb539" y="149.871531"/>
     <use style="fill:#1f77b4;stroke:#1f77b4;" x="271.484936" xlink:href="#m46946eb539" y="86.363129"/>
     <use style="fill:#1f77b4;stroke:#1f77b4;" x="294.145025" xlink:href="#m46946eb539" y="176.77844"/>
     <use style="fill:#1f77b4;stroke:#1f77b4;" x="302.548353" xlink:href="#m46946eb539" y="202.558985"/>
     <use style="fill:#1f77b4;stroke:#1f77b4;" x="257.487846" xlink:href="#m46946eb539" y="213.566916"/>
     <use style="fill:#1f77b4;stroke:#1f77b4;" x="356.402312" xlink:href="#m46946eb539" y="125.652243"/>
     <use style="fill:#1f77b4;stroke:#1f77b4;" x="311.456541" xlink:href="#m46946eb539" y="174.409598"/>
     <use style="fill:#1f77b4;stroke:#1f77b4;" x="196.697976" xlink:href="#m46946eb539" y="167.228676"/>
     <use style="fill:#1f77b4;stroke:#1f77b4;" x="282.390326" xlink:href="#m46946eb539" y="211.985617"/>
     <use style="fill:#1f77b4;stroke:#1f77b4;" x="238.072131" xlink:href="#m46946eb539" y="186.217463"/>
     <use style="fill:#1f77b4;stroke:#1f77b4;" x="280.772407" xlink:href="#m46946eb539" y="243.366355"/>
     <use style="fill:#1f77b4;stroke:#1f77b4;" x="297.83201" xlink:href="#m46946eb539" y="125.421183"/>
     <use style="fill:#1f77b4;stroke:#1f77b4;" x="266.152039" xlink:href="#m46946eb539" y="154.476398"/>
     <use style="fill:#1f77b4;stroke:#1f77b4;" x="301.233751" xlink:href="#m46946eb539" y="166.707356"/>
     <use style="fill:#1f77b4;stroke:#1f77b4;" x="238.576352" xlink:href="#m46946eb539" y="152.976137"/>
     <use style="fill:#1f77b4;stroke:#1f77b4;" x="309.483505" xlink:href="#m46946eb539" y="233.14187"/>
     <use style="fill:#1f77b4;stroke:#1f77b4;" x="306.341062" xlink:href="#m46946eb539" y="123.641373"/>
     <use style="fill:#1f77b4;stroke:#1f77b4;" x="220.257502" xlink:href="#m46946eb539" y="241.474662"/>
     <use style="fill:#1f77b4;stroke:#1f77b4;" x="238.725758" xlink:href="#m46946eb539" y="161.641111"/>
     <use style="fill:#1f77b4;stroke:#1f77b4;" x="198.119127" xlink:href="#m46946eb539" y="171.276671"/>
     <use style="fill:#1f77b4;stroke:#1f77b4;" x="359.446104" xlink:href="#m46946eb539" y="262.104905"/>
     <use style="fill:#1f77b4;stroke:#1f77b4;" x="266.519168" xlink:href="#m46946eb539" y="127.525904"/>
     <use style="fill:#1f77b4;stroke:#1f77b4;" x="296.414067" xlink:href="#m46946eb539" y="180.875353"/>
     <use style="fill:#1f77b4;stroke:#1f77b4;" x="272.605083" xlink:href="#m46946eb539" y="184.354602"/>
     <use style="fill:#1f77b4;stroke:#1f77b4;" x="333.957156" xlink:href="#m46946eb539" y="140.534583"/>
     <use style="fill:#1f77b4;stroke:#1f77b4;" x="227.353072" xlink:href="#m46946eb539" y="174.937034"/>
     <use style="fill:#1f77b4;stroke:#1f77b4;" x="263.60093" xlink:href="#m46946eb539" y="155.4844"/>
     <use style="fill:#1f77b4;stroke:#1f77b4;" x="288.967015" xlink:href="#m46946eb539" y="122.177154"/>
     <use style="fill:#1f77b4;stroke:#1f77b4;" x="299.445507" xlink:href="#m46946eb539" y="141.536033"/>
     <use style="fill:#1f77b4;stroke:#1f77b4;" x="308.697659" xlink:href="#m46946eb539" y="190.219627"/>
     <use style="fill:#1f77b4;stroke:#1f77b4;" x="326.733675" xlink:href="#m46946eb539" y="167.29851"/>
     <use style="fill:#1f77b4;stroke:#1f77b4;" x="214.04635" xlink:href="#m46946eb539" y="145.603204"/>
     <use style="fill:#1f77b4;stroke:#1f77b4;" x="302.337768" xlink:href="#m46946eb539" y="133.437936"/>
     <use style="fill:#1f77b4;stroke:#1f77b4;" x="367.339541" xlink:href="#m46946eb539" y="163.450388"/>
     <use style="fill:#1f77b4;stroke:#1f77b4;" x="276.610961" xlink:href="#m46946eb539" y="166.358002"/>
     <use style="fill:#1f77b4;stroke:#1f77b4;" x="357.954525" xlink:href="#m46946eb539" y="188.524336"/>
     <use style="fill:#1f77b4;stroke:#1f77b4;" x="282.52306" xlink:href="#m46946eb539" y="112.900126"/>
     <use style="fill:#1f77b4;stroke:#1f77b4;" x="266.029537" xlink:href="#m46946eb539" y="214.120357"/>
     <use style="fill:#1f77b4;stroke:#1f77b4;" x="282.965935" xlink:href="#m46946eb539" y="171.218521"/>
     <use style="fill:#1f77b4;stroke:#1f77b4;" x="285.047038" xlink:href="#m46946eb539" y="173.034364"/>
    </g>
   </g>
   <g id="PathCollection_2">
    <defs>
     <path d="M 0 3 
C 0.795609 3 1.55874 2.683901 2.12132 2.12132 
C 2.683901 1.55874 3 0.795609 3 0 
C 3 -0.795609 2.683901 -1.55874 2.12132 -2.12132 
C 1.55874 -2.683901 0.795609 -3 0 -3 
C -0.795609 -3 -1.55874 -2.683901 -2.12132 -2.12132 
C -2.683901 -1.55874 -3 -0.795609 -3 0 
C -3 0.795609 -2.683901 1.55874 -2.12132 2.12132 
C -1.55874 2.683901 -0.795609 3 0 3 
z
" id="maf394322c0" style="stroke:#ff7f0e;"/>
    </defs>
    <g clip-path="url(#p2ddf61f572)">
     <use style="fill:#ff7f0e;stroke:#ff7f0e;" x="208.099572" xlink:href="#maf394322c0" y="252.296912"/>
     <use style="fill:#ff7f0e;stroke:#ff7f0e;" x="231.107046" xlink:href="#maf394322c0" y="150.459311"/>
     <use style="fill:#ff7f0e;stroke:#ff7f0e;" x="268.211155" xlink:href="#maf394322c0" y="195.409904"/>
     <use style="fill:#ff7f0e;stroke:#ff7f0e;" x="199.574462" xlink:href="#maf394322c0" y="156.53404"/>
     <use style="fill:#ff7f0e;stroke:#ff7f0e;" x="228.207157" xlink:href="#maf394322c0" y="190.705347"/>
     <use style="fill:#ff7f0e;stroke:#ff7f0e;" x="255.103156" xlink:href="#maf394322c0" y="144.150892"/>
     <use style="fill:#ff7f0e;stroke:#ff7f0e;" x="165.111215" xlink:href="#maf394322c0" y="229.730991"/>
     <use style="fill:#ff7f0e;stroke:#ff7f0e;" x="248.209609" xlink:href="#maf394322c0" y="229.423204"/>
     <use style="fill:#ff7f0e;stroke:#ff7f0e;" x="159.985182" xlink:href="#maf394322c0" y="154.761022"/>
     <use style="fill:#ff7f0e;stroke:#ff7f0e;" x="143.558653" xlink:href="#maf394322c0" y="201.349297"/>
     <use style="fill:#ff7f0e;stroke:#ff7f0e;" x="153.23502" xlink:href="#maf394322c0" y="203.517494"/>
     <use style="fill:#ff7f0e;stroke:#ff7f0e;" x="146.935929" xlink:href="#maf394322c0" y="138.358568"/>
     <use style="fill:#ff7f0e;stroke:#ff7f0e;" x="187.469055" xlink:href="#maf394322c0" y="153.917232"/>
     <use style="fill:#ff7f0e;stroke:#ff7f0e;" x="176.956463" xlink:href="#maf394322c0" y="173.81091"/>
     <use style="fill:#ff7f0e;stroke:#ff7f0e;" x="191.913484" xlink:href="#maf394322c0" y="234.991184"/>
     <use style="fill:#ff7f0e;stroke:#ff7f0e;" x="183.207621" xlink:href="#maf394322c0" y="178.999756"/>
     <use style="fill:#ff7f0e;stroke:#ff7f0e;" x="118.668582" xlink:href="#maf394322c0" y="159.63386"/>
     <use style="fill:#ff7f0e;stroke:#ff7f0e;" x="153.347529" xlink:href="#maf394322c0" y="202.74093"/>
     <use style="fill:#ff7f0e;stroke:#ff7f0e;" x="232.693032" xlink:href="#maf394322c0" y="198.156005"/>
     <use style="fill:#ff7f0e;stroke:#ff7f0e;" x="115.853847" xlink:href="#maf394322c0" y="179.489552"/>
     <use style="fill:#ff7f0e;stroke:#ff7f0e;" x="200.669412" xlink:href="#maf394322c0" y="218.334516"/>
     <use style="fill:#ff7f0e;stroke:#ff7f0e;" x="238.100713" xlink:href="#maf394322c0" y="229.358936"/>
     <use style="fill:#ff7f0e;stroke:#ff7f0e;" x="138.980424" xlink:href="#maf394322c0" y="160.082527"/>
     <use style="fill:#ff7f0e;stroke:#ff7f0e;" x="245.716044" xlink:href="#maf394322c0" y="194.414593"/>
     <use style="fill:#ff7f0e;stroke:#ff7f0e;" x="177.999293" xlink:href="#maf394322c0" y="147.378553"/>
     <use style="fill:#ff7f0e;stroke:#ff7f0e;" x="234.499971" xlink:href="#maf394322c0" y="195.421384"/>
     <use style="fill:#ff7f0e;stroke:#ff7f0e;" x="191.250812" xlink:href="#maf394322c0" y="185.498281"/>
     <use style="fill:#ff7f0e;stroke:#ff7f0e;" x="159.799054" xlink:href="#maf394322c0" y="187.244119"/>
     <use style="fill:#ff7f0e;stroke:#ff7f0e;" x="273.032289" xlink:href="#maf394322c0" y="219.71342"/>
     <use style="fill:#ff7f0e;stroke:#ff7f0e;" x="192.698892" xlink:href="#maf394322c0" y="277.583949"/>
     <use style="fill:#ff7f0e;stroke:#ff7f0e;" x="226.215666" xlink:href="#maf394322c0" y="163.54889"/>
     <use style="fill:#ff7f0e;stroke:#ff7f0e;" x="93.359141" xlink:href="#maf394322c0" y="217.927921"/>
     <use style="fill:#ff7f0e;stroke:#ff7f0e;" x="82.694555" xlink:href="#maf394322c0" y="180.96177"/>
     <use style="fill:#ff7f0e;stroke:#ff7f0e;" x="141.699693" xlink:href="#maf394322c0" y="138.50391"/>
     <use style="fill:#ff7f0e;stroke:#ff7f0e;" x="200.158884" xlink:href="#maf394322c0" y="191.622662"/>
     <use style="fill:#ff7f0e;stroke:#ff7f0e;" x="206.771217" xlink:href="#maf394322c0" y="121.212204"/>
     <use style="fill:#ff7f0e;stroke:#ff7f0e;" x="173.962401" xlink:href="#maf394322c0" y="161.375228"/>
     <use style="fill:#ff7f0e;stroke:#ff7f0e;" x="196.246111" xlink:href="#maf394322c0" y="212.603347"/>
     <use style="fill:#ff7f0e;stroke:#ff7f0e;" x="278.971064" xlink:href="#maf394322c0" y="187.975308"/>
     <use style="fill:#ff7f0e;stroke:#ff7f0e;" x="92.572659" xlink:href="#maf394322c0" y="207.625717"/>
     <use style="fill:#ff7f0e;stroke:#ff7f0e;" x="188.070853" xlink:href="#maf394322c0" y="179.649414"/>
     <use style="fill:#ff7f0e;stroke:#ff7f0e;" x="248.77345" xlink:href="#maf394322c0" y="156.802666"/>
     <use style="fill:#ff7f0e;stroke:#ff7f0e;" x="226.32584" xlink:href="#maf394322c0" y="215.61606"/>
     <use style="fill:#ff7f0e;stroke:#ff7f0e;" x="259.619001" xlink:href="#maf394322c0" y="175.453274"/>
     <use style="fill:#ff7f0e;stroke:#ff7f0e;" x="143.323552" xlink:href="#maf394322c0" y="210.396951"/>
     <use style="fill:#ff7f0e;stroke:#ff7f0e;" x="121.85596" xlink:href="#maf394322c0" y="154.236963"/>
     <use style="fill:#ff7f0e;stroke:#ff7f0e;" x="185.201786" xlink:href="#maf394322c0" y="180.318892"/>
     <use style="fill:#ff7f0e;stroke:#ff7f0e;" x="162.52563" xlink:href="#maf394322c0" y="293.42345"/>
     <use style="fill:#ff7f0e;stroke:#ff7f0e;" x="237.155761" xlink:href="#maf394322c0" y="127.31668"/>
     <use style="fill:#ff7f0e;stroke:#ff7f0e;" x="192.106718" xlink:href="#maf394322c0" y="180.302169"/>
     <use style="fill:#ff7f0e;stroke:#ff7f0e;" x="158.361465" xlink:href="#maf394322c0" y="161.563935"/>
     <use style="fill:#ff7f0e;stroke:#ff7f0e;" x="311.907559" xlink:href="#maf394322c0" y="164.518397"/>
     <use style="fill:#ff7f0e;stroke:#ff7f0e;" x="161.277546" xlink:href="#maf394322c0" y="182.949059"/>
     <use style="fill:#ff7f0e;stroke:#ff7f0e;" x="227.171477" xlink:href="#maf394322c0" y="179.341236"/>
     <use style="fill:#ff7f0e;stroke:#ff7f0e;" x="145.144497" xlink:href="#maf394322c0" y="175.330796"/>
     <use style="fill:#ff7f0e;stroke:#ff7f0e;" x="179.462977" xlink:href="#maf394322c0" y="198.811058"/>
     <use style="fill:#ff7f0e;stroke:#ff7f0e;" x="142.952871" xlink:href="#maf394322c0" y="178.899015"/>
     <use style="fill:#ff7f0e;stroke:#ff7f0e;" x="238.932909" xlink:href="#maf394322c0" y="200.949421"/>
     <use style="fill:#ff7f0e;stroke:#ff7f0e;" x="160.875057" xlink:href="#maf394322c0" y="185.31788"/>
     <use style="fill:#ff7f0e;stroke:#ff7f0e;" x="175.971667" xlink:href="#maf394322c0" y="228.501996"/>
     <use style="fill:#ff7f0e;stroke:#ff7f0e;" x="228.983619" xlink:href="#maf394322c0" y="228.434879"/>
     <use style="fill:#ff7f0e;stroke:#ff7f0e;" x="169.323633" xlink:href="#maf394322c0" y="286.242177"/>
     <use style="fill:#ff7f0e;stroke:#ff7f0e;" x="175.912588" xlink:href="#maf394322c0" y="168.945881"/>
     <use style="fill:#ff7f0e;stroke:#ff7f0e;" x="244.731057" xlink:href="#maf394322c0" y="167.610653"/>
     <use style="fill:#ff7f0e;stroke:#ff7f0e;" x="200.327189" xlink:href="#maf394322c0" y="202.297094"/>
     <use style="fill:#ff7f0e;stroke:#ff7f0e;" x="208.132683" xlink:href="#maf394322c0" y="237.210232"/>
     <use style="fill:#ff7f0e;stroke:#ff7f0e;" x="207.323554" xlink:href="#maf394322c0" y="146.235714"/>
     <use style="fill:#ff7f0e;stroke:#ff7f0e;" x="255.499326" xlink:href="#maf394322c0" y="212.499617"/>
     <use style="fill:#ff7f0e;stroke:#ff7f0e;" x="96.57167" xlink:href="#maf394322c0" y="204.863605"/>
     <use style="fill:#ff7f0e;stroke:#ff7f0e;" x="238.888926" xlink:href="#maf394322c0" y="170.046391"/>
     <use style="fill:#ff7f0e;stroke:#ff7f0e;" x="170.767539" xlink:href="#maf394322c0" y="171.820189"/>
     <use style="fill:#ff7f0e;stroke:#ff7f0e;" x="212.8391" xlink:href="#maf394322c0" y="212.977421"/>
     <use style="fill:#ff7f0e;stroke:#ff7f0e;" x="237.085994" xlink:href="#maf394322c0" y="210.452351"/>
     <use style="fill:#ff7f0e;stroke:#ff7f0e;" x="226.571314" xlink:href="#maf394322c0" y="250.188134"/>
     <use style="fill:#ff7f0e;stroke:#ff7f0e;" x="306.898318" xlink:href="#maf394322c0" y="144.47156"/>
     <use style="fill:#ff7f0e;stroke:#ff7f0e;" x="251.530886" xlink:href="#maf394322c0" y="159.182098"/>
     <use style="fill:#ff7f0e;stroke:#ff7f0e;" x="183.708516" xlink:href="#maf394322c0" y="173.029763"/>
     <use style="fill:#ff7f0e;stroke:#ff7f0e;" x="75.404778" xlink:href="#maf394322c0" y="106.318752"/>
     <use style="fill:#ff7f0e;stroke:#ff7f0e;" x="251.997731" xlink:href="#maf394322c0" y="111.062163"/>
     <use style="fill:#ff7f0e;stroke:#ff7f0e;" x="211.300816" xlink:href="#maf394322c0" y="176.796006"/>
     <use style="fill:#ff7f0e;stroke:#ff7f0e;" x="235.989254" xlink:href="#maf394322c0" y="220.71395"/>
     <use style="fill:#ff7f0e;stroke:#ff7f0e;" x="279.962213" xlink:href="#maf394322c0" y="190.680934"/>
     <use style="fill:#ff7f0e;stroke:#ff7f0e;" x="141.759798" xlink:href="#maf394322c0" y="252.650009"/>
     <use style="fill:#ff7f0e;stroke:#ff7f0e;" x="158.38984" xlink:href="#maf394322c0" y="174.060981"/>
     <use style="fill:#ff7f0e;stroke:#ff7f0e;" x="247.033165" xlink:href="#maf394322c0" y="230.559278"/>
     <use style="fill:#ff7f0e;stroke:#ff7f0e;" x="101.41979" xlink:href="#maf394322c0" y="238.865044"/>
     <use style="fill:#ff7f0e;stroke:#ff7f0e;" x="178.234597" xlink:href="#maf394322c0" y="194.066244"/>
     <use style="fill:#ff7f0e;stroke:#ff7f0e;" x="166.763842" xlink:href="#maf394322c0" y="191.790955"/>
     <use style="fill:#ff7f0e;stroke:#ff7f0e;" x="170.976248" xlink:href="#maf394322c0" y="162.322407"/>
     <use style="fill:#ff7f0e;stroke:#ff7f0e;" x="204.739722" xlink:href="#maf394322c0" y="163.442803"/>
     <use style="fill:#ff7f0e;stroke:#ff7f0e;" x="191.694226" xlink:href="#maf394322c0" y="214.108479"/>
     <use style="fill:#ff7f0e;stroke:#ff7f0e;" x="234.671531" xlink:href="#maf394322c0" y="130.834512"/>
     <use style="fill:#ff7f0e;stroke:#ff7f0e;" x="106.182371" xlink:href="#maf394322c0" y="225.178507"/>
     <use style="fill:#ff7f0e;stroke:#ff7f0e;" x="242.32926" xlink:href="#maf394322c0" y="291.784105"/>
     <use style="fill:#ff7f0e;stroke:#ff7f0e;" x="210.675177" xlink:href="#maf394322c0" y="256.940434"/>
     <use style="fill:#ff7f0e;stroke:#ff7f0e;" x="140.746117" xlink:href="#maf394322c0" y="139.32405"/>
     <use style="fill:#ff7f0e;stroke:#ff7f0e;" x="149.083734" xlink:href="#maf394322c0" y="157.714047"/>
     <use style="fill:#ff7f0e;stroke:#ff7f0e;" x="166.044031" xlink:href="#maf394322c0" y="157.706286"/>
     <use style="fill:#ff7f0e;stroke:#ff7f0e;" x="198.74601" xlink:href="#maf394322c0" y="216.00674"/>
     <use style="fill:#ff7f0e;stroke:#ff7f0e;" x="158.788831" xlink:href="#maf394322c0" y="146.572493"/>
    </g>
   </g>
   <g id="matplotlib.axis_1">
    <g id="xtick_1">
     <g id="line2d_1">
      <defs>
       <path d="M 0 0 
L 0 3.5 
" id="me8e63cb02a" style="stroke:#000000;stroke-width:0.8;"/>
      </defs>
      <g>
       <use style="stroke:#000000;stroke-width:0.8;" x="89.720237" xlink:href="#me8e63cb02a" y="307.584"/>
      </g>
     </g>
     <g id="text_1">
      <!-- −3 -->
      <defs>
       <path d="M 10.59375 35.5 
L 73.1875 35.5 
L 73.1875 27.203125 
L 10.59375 27.203125 
z
" id="DejaVuSans-8722"/>
       <path d="M 40.578125 39.3125 
Q 47.65625 37.796875 51.625 33 
Q 55.609375 28.21875 55.609375 21.1875 
Q 55.609375 10.40625 48.1875 4.484375 
Q 40.765625 -1.421875 27.09375 -1.421875 
Q 22.515625 -1.421875 17.65625 -0.515625 
Q 12.796875 0.390625 7.625 2.203125 
L 7.625 11.71875 
Q 11.71875 9.328125 16.59375 8.109375 
Q 21.484375 6.890625 26.8125 6.890625 
Q 36.078125 6.890625 40.9375 10.546875 
Q 45.796875 14.203125 45.796875 21.1875 
Q 45.796875 27.640625 41.28125 31.265625 
Q 36.765625 34.90625 28.71875 34.90625 
L 20.21875 34.90625 
L 20.21875 43.015625 
L 29.109375 43.015625 
Q 36.375 43.015625 40.234375 45.921875 
Q 44.09375 48.828125 44.09375 54.296875 
Q 44.09375 59.90625 40.109375 62.90625 
Q 36.140625 65.921875 28.71875 65.921875 
Q 24.65625 65.921875 20.015625 65.03125 
Q 15.375 64.15625 9.8125 62.3125 
L 9.8125 71.09375 
Q 15.4375 72.65625 20.34375 73.4375 
Q 25.25 74.21875 29.59375 74.21875 
Q 40.828125 74.21875 47.359375 69.109375 
Q 53.90625 64.015625 53.90625 55.328125 
Q 53.90625 49.265625 50.4375 45.09375 
Q 46.96875 40.921875 40.578125 39.3125 
z
" id="DejaVuSans-51"/>
      </defs>
      <g transform="translate(82.349144 322.182437)scale(0.1 -0.1)">
       <use xlink:href="#DejaVuSans-8722"/>
       <use x="83.789062" xlink:href="#DejaVuSans-51"/>
      </g>
     </g>
    </g>
    <g id="xtick_2">
     <g id="line2d_2">
      <g>
       <use style="stroke:#000000;stroke-width:0.8;" x="139.150872" xlink:href="#me8e63cb02a" y="307.584"/>
      </g>
     </g>
     <g id="text_2">
      <!-- −2 -->
      <defs>
       <path d="M 19.1875 8.296875 
L 53.609375 8.296875 
L 53.609375 0 
L 7.328125 0 
L 7.328125 8.296875 
Q 12.9375 14.109375 22.625 23.890625 
Q 32.328125 33.6875 34.8125 36.53125 
Q 39.546875 41.84375 41.421875 45.53125 
Q 43.3125 49.21875 43.3125 52.78125 
Q 43.3125 58.59375 39.234375 62.25 
Q 35.15625 65.921875 28.609375 65.921875 
Q 23.96875 65.921875 18.8125 64.3125 
Q 13.671875 62.703125 7.8125 59.421875 
L 7.8125 69.390625 
Q 13.765625 71.78125 18.9375 73 
Q 24.125 74.21875 28.421875 74.21875 
Q 39.75 74.21875 46.484375 68.546875 
Q 53.21875 62.890625 53.21875 53.421875 
Q 53.21875 48.921875 51.53125 44.890625 
Q 49.859375 40.875 45.40625 35.40625 
Q 44.1875 33.984375 37.640625 27.21875 
Q 31.109375 20.453125 19.1875 8.296875 
z
" id="DejaVuSans-50"/>
      </defs>
      <g transform="translate(131.779778 322.182437)scale(0.1 -0.1)">
       <use xlink:href="#DejaVuSans-8722"/>
       <use x="83.789062" xlink:href="#DejaVuSans-50"/>
      </g>
     </g>
    </g>
    <g id="xtick_3">
     <g id="line2d_3">
      <g>
       <use style="stroke:#000000;stroke-width:0.8;" x="188.581506" xlink:href="#me8e63cb02a" y="307.584"/>
      </g>
     </g>
     <g id="text_3">
      <!-- −1 -->
      <defs>
       <path d="M 12.40625 8.296875 
L 28.515625 8.296875 
L 28.515625 63.921875 
L 10.984375 60.40625 
L 10.984375 69.390625 
L 28.421875 72.90625 
L 38.28125 72.90625 
L 38.28125 8.296875 
L 54.390625 8.296875 
L 54.390625 0 
L 12.40625 0 
z
" id="DejaVuSans-49"/>
      </defs>
      <g transform="translate(181.210412 322.182437)scale(0.1 -0.1)">
       <use xlink:href="#DejaVuSans-8722"/>
       <use x="83.789062" xlink:href="#DejaVuSans-49"/>
      </g>
     </g>
    </g>
    <g id="xtick_4">
     <g id="line2d_4">
      <g>
       <use style="stroke:#000000;stroke-width:0.8;" x="238.01214" xlink:href="#me8e63cb02a" y="307.584"/>
      </g>
     </g>
     <g id="text_4">
      <!-- 0 -->
      <defs>
       <path d="M 31.78125 66.40625 
Q 24.171875 66.40625 20.328125 58.90625 
Q 16.5 51.421875 16.5 36.375 
Q 16.5 21.390625 20.328125 13.890625 
Q 24.171875 6.390625 31.78125 6.390625 
Q 39.453125 6.390625 43.28125 13.890625 
Q 47.125 21.390625 47.125 36.375 
Q 47.125 51.421875 43.28125 58.90625 
Q 39.453125 66.40625 31.78125 66.40625 
z
M 31.78125 74.21875 
Q 44.046875 74.21875 50.515625 64.515625 
Q 56.984375 54.828125 56.984375 36.375 
Q 56.984375 17.96875 50.515625 8.265625 
Q 44.046875 -1.421875 31.78125 -1.421875 
Q 19.53125 -1.421875 13.0625 8.265625 
Q 6.59375 17.96875 6.59375 36.375 
Q 6.59375 54.828125 13.0625 64.515625 
Q 19.53125 74.21875 31.78125 74.21875 
z
" id="DejaVuSans-48"/>
      </defs>
      <g transform="translate(234.83089 322.182437)scale(0.1 -0.1)">
       <use xlink:href="#DejaVuSans-48"/>
      </g>
     </g>
    </g>
    <g id="xtick_5">
     <g id="line2d_5">
      <g>
       <use style="stroke:#000000;stroke-width:0.8;" x="287.442774" xlink:href="#me8e63cb02a" y="307.584"/>
      </g>
     </g>
     <g id="text_5">
      <!-- 1 -->
      <g transform="translate(284.261524 322.182437)scale(0.1 -0.1)">
       <use xlink:href="#DejaVuSans-49"/>
      </g>
     </g>
    </g>
    <g id="xtick_6">
     <g id="line2d_6">
      <g>
       <use style="stroke:#000000;stroke-width:0.8;" x="336.873408" xlink:href="#me8e63cb02a" y="307.584"/>
      </g>
     </g>
     <g id="text_6">
      <!-- 2 -->
      <g transform="translate(333.692158 322.182437)scale(0.1 -0.1)">
       <use xlink:href="#DejaVuSans-50"/>
      </g>
     </g>
    </g>
    <g id="xtick_7">
     <g id="line2d_7">
      <g>
       <use style="stroke:#000000;stroke-width:0.8;" x="386.304043" xlink:href="#me8e63cb02a" y="307.584"/>
      </g>
     </g>
     <g id="text_7">
      <!-- 3 -->
      <g transform="translate(383.122793 322.182437)scale(0.1 -0.1)">
       <use xlink:href="#DejaVuSans-51"/>
      </g>
     </g>
    </g>
   </g>
   <g id="matplotlib.axis_2">
    <g id="ytick_1">
     <g id="line2d_8">
      <defs>
       <path d="M 0 0 
L -3.5 0 
" id="mac3da94213" style="stroke:#000000;stroke-width:0.8;"/>
      </defs>
      <g>
       <use style="stroke:#000000;stroke-width:0.8;" x="57.6" xlink:href="#mac3da94213" y="304.459459"/>
      </g>
     </g>
     <g id="text_8">
      <!-- −3 -->
      <g transform="translate(35.857813 308.258677)scale(0.1 -0.1)">
       <use xlink:href="#DejaVuSans-8722"/>
       <use x="83.789062" xlink:href="#DejaVuSans-51"/>
      </g>
     </g>
    </g>
    <g id="ytick_2">
     <g id="line2d_9">
      <g>
       <use style="stroke:#000000;stroke-width:0.8;" x="57.6" xlink:href="#mac3da94213" y="265.068453"/>
      </g>
     </g>
     <g id="text_9">
      <!-- −2 -->
      <g transform="translate(35.857813 268.867672)scale(0.1 -0.1)">
       <use xlink:href="#DejaVuSans-8722"/>
       <use x="83.789062" xlink:href="#DejaVuSans-50"/>
      </g>
     </g>
    </g>
    <g id="ytick_3">
     <g id="line2d_10">
      <g>
       <use style="stroke:#000000;stroke-width:0.8;" x="57.6" xlink:href="#mac3da94213" y="225.677447"/>
      </g>
     </g>
     <g id="text_10">
      <!-- −1 -->
      <g transform="translate(35.857813 229.476666)scale(0.1 -0.1)">
       <use xlink:href="#DejaVuSans-8722"/>
       <use x="83.789062" xlink:href="#DejaVuSans-49"/>
      </g>
     </g>
    </g>
    <g id="ytick_4">
     <g id="line2d_11">
      <g>
       <use style="stroke:#000000;stroke-width:0.8;" x="57.6" xlink:href="#mac3da94213" y="186.286441"/>
      </g>
     </g>
     <g id="text_11">
      <!-- 0 -->
      <g transform="translate(44.2375 190.08566)scale(0.1 -0.1)">
       <use xlink:href="#DejaVuSans-48"/>
      </g>
     </g>
    </g>
    <g id="ytick_5">
     <g id="line2d_12">
      <g>
       <use style="stroke:#000000;stroke-width:0.8;" x="57.6" xlink:href="#mac3da94213" y="146.895435"/>
      </g>
     </g>
     <g id="text_12">
      <!-- 1 -->
      <g transform="translate(44.2375 150.694654)scale(0.1 -0.1)">
       <use xlink:href="#DejaVuSans-49"/>
      </g>
     </g>
    </g>
    <g id="ytick_6">
     <g id="line2d_13">
      <g>
       <use style="stroke:#000000;stroke-width:0.8;" x="57.6" xlink:href="#mac3da94213" y="107.504429"/>
      </g>
     </g>
     <g id="text_13">
      <!-- 2 -->
      <g transform="translate(44.2375 111.303648)scale(0.1 -0.1)">
       <use xlink:href="#DejaVuSans-50"/>
      </g>
     </g>
    </g>
    <g id="ytick_7">
     <g id="line2d_14">
      <g>
       <use style="stroke:#000000;stroke-width:0.8;" x="57.6" xlink:href="#mac3da94213" y="68.113423"/>
      </g>
     </g>
     <g id="text_14">
      <!-- 3 -->
      <g transform="translate(44.2375 71.912642)scale(0.1 -0.1)">
       <use xlink:href="#DejaVuSans-51"/>
      </g>
     </g>
    </g>
   </g>
   <g id="patch_3">
    <path d="M 57.6 307.584 
L 57.6 41.472 
" style="fill:none;stroke:#000000;stroke-linecap:square;stroke-linejoin:miter;stroke-width:0.8;"/>
   </g>
   <g id="patch_4">
    <path d="M 414.72 307.584 
L 414.72 41.472 
" style="fill:none;stroke:#000000;stroke-linecap:square;stroke-linejoin:miter;stroke-width:0.8;"/>
   </g>
   <g id="patch_5">
    <path d="M 57.6 307.584 
L 414.72 307.584 
" style="fill:none;stroke:#000000;stroke-linecap:square;stroke-linejoin:miter;stroke-width:0.8;"/>
   </g>
   <g id="patch_6">
    <path d="M 57.6 41.472 
L 414.72 41.472 
" style="fill:none;stroke:#000000;stroke-linecap:square;stroke-linejoin:miter;stroke-width:0.8;"/>
   </g>
  </g>
 </g>
 <defs>
  <clipPath id="p2ddf61f572">
   <rect height="266.112" width="357.12" x="57.6" y="41.472"/>
  </clipPath>
 </defs>
</svg>
